<svg width="71" height="71" viewBox="0 0 71 71" fill="none" xmlns="http://www.w3.org/2000/svg">
<path d="M40.6992 63.0051H29.5809C29.3988 63.0051 29.2243 62.9328 29.0955 62.8041C28.9668 62.6754 28.8945 62.5008 28.8945 62.3188V52.2299C28.8945 50.5735 29.5525 48.9849 30.7238 47.8136C31.8951 46.6424 33.4836 45.9844 35.1401 45.9844C36.7965 45.9844 38.385 46.6424 39.5563 47.8136C40.7276 48.9849 41.3856 50.5735 41.3856 52.2299V62.3188C41.3856 62.5008 41.3133 62.6754 41.1845 62.8041C41.0558 62.9328 40.8813 63.0051 40.6992 63.0051ZM30.2672 61.6325H40.0129V52.2299C40.0129 50.9375 39.4995 49.6981 38.5857 48.7842C37.6719 47.8704 36.4324 47.357 35.1401 47.357C33.8477 47.357 32.6082 47.8704 31.6944 48.7842C30.7806 49.6981 30.2672 50.9375 30.2672 52.2299V61.6325Z" fill="#2E2E2E"/>
<path d="M26.7672 48.4562C26.4957 48.4562 26.2303 48.3757 26.0046 48.2249C25.7788 48.0741 25.6029 47.8597 25.499 47.6089C25.3951 47.3581 25.3679 47.0821 25.4209 46.8158C25.4739 46.5495 25.6046 46.3049 25.7966 46.113C25.9885 45.921 26.2331 45.7903 26.4994 45.7373C26.7657 45.6843 27.0416 45.7115 27.2925 45.8154C27.5433 45.9193 27.7577 46.0953 27.9085 46.321C28.0593 46.5467 28.1398 46.8121 28.1398 47.0836C28.1398 47.4476 27.9952 47.7968 27.7378 48.0542C27.4804 48.3116 27.1312 48.4562 26.7672 48.4562Z" fill="#2E2E2E"/>
<path d="M43.5133 48.4562C43.2418 48.4562 42.9764 48.3757 42.7507 48.2249C42.5249 48.0741 42.349 47.8597 42.2451 47.6089C42.1412 47.3581 42.114 47.0821 42.167 46.8158C42.22 46.5495 42.3507 46.3049 42.5427 46.113C42.7346 45.921 42.9792 45.7903 43.2455 45.7373C43.5117 45.6843 43.7877 45.7115 44.0386 45.8154C44.2894 45.9193 44.5038 46.0953 44.6546 46.321C44.8054 46.5467 44.8859 46.8121 44.8859 47.0836C44.8859 47.4476 44.7413 47.7968 44.4839 48.0542C44.2265 48.3116 43.8773 48.4562 43.5133 48.4562Z" fill="#2E2E2E"/>
<path d="M24.7081 31.5033H12.3543C12.1723 31.5033 11.9977 31.431 11.869 31.3023C11.7403 31.1736 11.668 30.999 11.668 30.817V25.4637C11.668 25.2816 11.7403 25.1071 11.869 24.9784C11.9977 24.8497 12.1723 24.7773 12.3543 24.7773H24.7081C24.8901 24.7773 25.0647 24.8497 25.1934 24.9784C25.3221 25.1071 25.3944 25.2816 25.3944 25.4637V30.817C25.3944 30.999 25.3221 31.1736 25.1934 31.3023C25.0647 31.431 24.8901 31.5033 24.7081 31.5033ZM13.0406 30.1306H24.0217V26.15H13.0406V30.1306Z" fill="#2E2E2E"/>
<path d="M47.6313 35.6908H22.6492C22.4672 35.6908 22.2926 35.6185 22.1639 35.4898C22.0352 35.3611 21.9629 35.1865 21.9629 35.0045V30.8179C21.9629 30.6359 22.0352 30.4613 22.1639 30.3326C22.2926 30.2039 22.4672 30.1316 22.6492 30.1316H24.0219V29.6512C24.0219 29.4691 24.0942 29.2946 24.2229 29.1659C24.3516 29.0372 24.5261 28.9648 24.7082 28.9648H45.5723C45.7543 28.9648 45.9289 29.0372 46.0576 29.1659C46.1863 29.2946 46.2586 29.4691 46.2586 29.6512V30.1316H47.6313C47.8133 30.1316 47.9879 30.2039 48.1166 30.3326C48.2453 30.4613 48.3176 30.6359 48.3176 30.8179V35.0045C48.3176 35.1865 48.2453 35.3611 48.1166 35.4898C47.9879 35.6185 47.8133 35.6908 47.6313 35.6908ZM23.3355 34.3181H46.945V31.5042H45.5723C45.3903 31.5042 45.2157 31.4319 45.087 31.3032C44.9583 31.1745 44.886 30.9999 44.886 30.8179V30.3375H25.3945V30.8179C25.3945 30.9999 25.3222 31.1745 25.1935 31.3032C25.0648 31.4319 24.8902 31.5042 24.7082 31.5042H23.3355V34.3181Z" fill="#2E2E2E"/>
<path d="M24.7081 19.3548H12.3543C12.1723 19.3548 11.9977 19.2825 11.869 19.1538C11.7403 19.0251 11.668 18.8506 11.668 18.6685V13.3152C11.668 13.1332 11.7403 12.9586 11.869 12.8299C11.9977 12.7012 12.1723 12.6289 12.3543 12.6289H24.7081C24.8901 12.6289 25.0647 12.7012 25.1934 12.8299C25.3221 12.9586 25.3944 13.1332 25.3944 13.3152V18.6685C25.3944 18.8506 25.3221 19.0251 25.1934 19.1538C25.0647 19.2825 24.8901 19.3548 24.7081 19.3548ZM13.0406 17.9822H24.0217V14.0015H13.0406V17.9822Z" fill="#2E2E2E"/>
<path d="M57.9268 19.3548H45.573C45.391 19.3548 45.2164 19.2825 45.0877 19.1538C44.959 19.0251 44.8867 18.8506 44.8867 18.6685V13.3152C44.8867 13.1332 44.959 12.9586 45.0877 12.8299C45.2164 12.7012 45.391 12.6289 45.573 12.6289H57.9268C58.1088 12.6289 58.2834 12.7012 58.4121 12.8299C58.5408 12.9586 58.6131 13.1332 58.6131 13.3152V18.6685C58.6131 18.8506 58.5408 19.0251 58.4121 19.1538C58.2834 19.2825 58.1088 19.3548 57.9268 19.3548ZM46.2594 17.9822H57.2405V14.0015H46.2594V17.9822Z" fill="#2E2E2E"/>
<path d="M57.9268 31.5033H45.573C45.391 31.5033 45.2164 31.431 45.0877 31.3023C44.959 31.1736 44.8867 30.999 44.8867 30.817V25.4637C44.8867 25.2816 44.959 25.1071 45.0877 24.9784C45.2164 24.8497 45.391 24.7773 45.573 24.7773H57.9268C58.1088 24.7773 58.2834 24.8497 58.4121 24.9784C58.5408 25.1071 58.6131 25.2816 58.6131 25.4637V30.817C58.6131 30.999 58.5408 31.1736 58.4121 31.3023C58.2834 31.431 58.1088 31.5033 57.9268 31.5033ZM46.2594 30.1306H57.2405V26.15H46.2594V30.1306Z" fill="#2E2E2E"/>
<path d="M57.9268 43.6498H45.573C45.391 43.6498 45.2164 43.5775 45.0877 43.4488C44.959 43.32 44.8867 43.1455 44.8867 42.9635V37.6101C44.8867 37.4281 44.959 37.2536 45.0877 37.1248C45.2164 36.9961 45.391 36.9238 45.573 36.9238H57.9268C58.1088 36.9238 58.2834 36.9961 58.4121 37.1248C58.5408 37.2536 58.6131 37.4281 58.6131 37.6101V42.9635C58.6131 43.1455 58.5408 43.32 58.4121 43.4488C58.2834 43.5775 58.1088 43.6498 57.9268 43.6498ZM46.2594 42.2771H57.2405V38.2965H46.2594V42.2771Z" fill="#2E2E2E"/>
<path d="M24.7081 43.6498H12.3543C12.1723 43.6498 11.9977 43.5775 11.869 43.4488C11.7403 43.32 11.668 43.1455 11.668 42.9635V37.6101C11.668 37.4281 11.7403 37.2536 11.869 37.1248C11.9977 36.9961 12.1723 36.9238 12.3543 36.9238H24.7081C24.8901 36.9238 25.0647 36.9961 25.1934 37.1248C25.3221 37.2536 25.3944 37.4281 25.3944 37.6101V42.9635C25.3944 43.1455 25.3221 43.32 25.1934 43.4488C25.0647 43.5775 24.8901 43.6498 24.7081 43.6498ZM13.0406 42.2771H24.0217V38.2965H13.0406V42.2771Z" fill="#2E2E2E"/>
<path d="M47.6313 43.9249H22.6492C22.4672 43.9249 22.2926 43.8526 22.1639 43.7239C22.0352 43.5952 21.9629 43.4206 21.9629 43.2386V42.964C21.9629 42.782 22.0352 42.6075 22.1639 42.4787C22.2926 42.35 22.4672 42.2777 22.6492 42.2777H24.0219V38.2971H22.6492C22.4672 38.2971 22.2926 38.2248 22.1639 38.096C22.0352 37.9673 21.9629 37.7928 21.9629 37.6107V35.0027C21.9629 34.8207 22.0352 34.6461 22.1639 34.5174C22.2926 34.3887 22.4672 34.3164 22.6492 34.3164H47.6313C47.8133 34.3164 47.9879 34.3887 48.1166 34.5174C48.2453 34.6461 48.3176 34.8207 48.3176 35.0027V37.6107C48.3176 37.7928 48.2453 37.9673 48.1166 38.096C47.9879 38.2248 47.8133 38.2971 47.6313 38.2971H46.2586V42.2777H47.6313C47.8133 42.2777 47.9879 42.35 48.1166 42.4787C48.2453 42.6075 48.3176 42.782 48.3176 42.964V43.2386C48.3176 43.4206 48.2453 43.5952 48.1166 43.7239C47.9879 43.8526 47.8133 43.9249 47.6313 43.9249ZM25.3945 42.5523H44.886V37.6107C44.886 37.4287 44.9583 37.2542 45.087 37.1254C45.2157 36.9967 45.3903 36.9244 45.5723 36.9244H46.945V35.689H23.3355V36.9244H24.7082C24.8902 36.9244 25.0648 36.9967 25.1935 37.1254C25.3222 37.2542 25.3945 37.4287 25.3945 37.6107V42.5523Z" fill="#2E2E2E"/>
<path d="M55.8675 26.1496H47.6316C47.4496 26.1496 47.275 26.0773 47.1463 25.9486C47.0176 25.8199 46.9453 25.6453 46.9453 25.4633V18.6687C46.9453 18.4867 47.0176 18.3122 47.1463 18.1834C47.275 18.0547 47.4496 17.9824 47.6316 17.9824H55.8675C56.0495 17.9824 56.2241 18.0547 56.3528 18.1834C56.4815 18.3122 56.5538 18.4867 56.5538 18.6687V25.4633C56.5538 25.6453 56.4815 25.8199 56.3528 25.9486C56.2241 26.0773 56.0495 26.1496 55.8675 26.1496ZM48.318 24.777H55.1812V19.3551H48.318V24.777Z" fill="#2E2E2E"/>
<path d="M55.8675 38.2961H47.6316C47.4496 38.2961 47.275 38.2238 47.1463 38.0951C47.0176 37.9664 46.9453 37.7918 46.9453 37.6098V30.8152C46.9453 30.6332 47.0176 30.4586 47.1463 30.3299C47.275 30.2012 47.4496 30.1289 47.6316 30.1289H55.8675C56.0495 30.1289 56.2241 30.2012 56.3528 30.3299C56.4815 30.4586 56.5538 30.6332 56.5538 30.8152V37.6098C56.5538 37.7918 56.4815 37.9664 56.3528 38.0951C56.2241 38.2238 56.0495 38.2961 55.8675 38.2961ZM48.318 36.9235H55.1812V31.5015H48.318V36.9235Z" fill="#2E2E2E"/>
<path d="M55.8675 63.0042H47.6316C47.4496 63.0042 47.275 62.9319 47.1463 62.8032C47.0176 62.6745 46.9453 62.4999 46.9453 62.3179V42.9637C46.9453 42.7816 47.0176 42.6071 47.1463 42.4784C47.275 42.3497 47.4496 42.2773 47.6316 42.2773H55.8675C56.0495 42.2773 56.2241 42.3497 56.3528 42.4784C56.4815 42.6071 56.5538 42.7816 56.5538 42.9637V62.3179C56.5538 62.4999 56.4815 62.6745 56.3528 62.8032C56.2241 62.9319 56.0495 63.0042 55.8675 63.0042ZM48.318 61.6316H55.1812V43.65H48.318V61.6316Z" fill="#2E2E2E"/>
<path d="M55.8675 14.0023H47.6316C47.4496 14.0023 47.275 13.93 47.1463 13.8013C47.0176 13.6726 46.9453 13.498 46.9453 13.316C46.9453 12.0418 47.4515 10.8198 48.3524 9.91885C49.2534 9.01788 50.4754 8.51172 51.7496 8.51172C53.0237 8.51172 54.2457 9.01788 55.1467 9.91885C56.0476 10.8198 56.5538 12.0418 56.5538 13.316C56.5538 13.498 56.4815 13.6726 56.3528 13.8013C56.2241 13.93 56.0495 14.0023 55.8675 14.0023ZM48.3866 12.6296H55.1125C54.955 11.8539 54.5341 11.1565 53.9213 10.6555C53.3084 10.1546 52.5411 9.88092 51.7496 9.88092C50.958 9.88092 50.1908 10.1546 49.5779 10.6555C48.965 11.1565 48.5441 11.8539 48.3866 12.6296Z" fill="#2E2E2E"/>
<path d="M51.7488 9.74669C51.5668 9.74669 51.3922 9.67438 51.2635 9.54567C51.1348 9.41696 51.0625 9.24239 51.0625 9.06037V7.82499C51.0625 7.64297 51.1348 7.4684 51.2635 7.33969C51.3922 7.21098 51.5668 7.13867 51.7488 7.13867C51.9308 7.13867 52.1054 7.21098 52.2341 7.33969C52.3628 7.4684 52.4351 7.64297 52.4351 7.82499V9.06037C52.4351 9.24239 52.3628 9.41696 52.2341 9.54567C52.1054 9.67438 51.9308 9.74669 51.7488 9.74669Z" fill="#2E2E2E"/>
<path d="M22.6487 26.1496H14.4129C14.2309 26.1496 14.0563 26.0773 13.9276 25.9486C13.7989 25.8199 13.7266 25.6453 13.7266 25.4633V18.6687C13.7266 18.4867 13.7989 18.3122 13.9276 18.1834C14.0563 18.0547 14.2309 17.9824 14.4129 17.9824H22.6487C22.8308 17.9824 23.0053 18.0547 23.134 18.1834C23.2627 18.3122 23.3351 18.4867 23.3351 18.6687V25.4633C23.3351 25.6453 23.2627 25.8199 23.134 25.9486C23.0053 26.0773 22.8308 26.1496 22.6487 26.1496ZM15.0992 24.777H21.9624V19.3551H15.0992V24.777Z" fill="#2E2E2E"/>
<path d="M22.6487 38.2961H14.4129C14.2309 38.2961 14.0563 38.2238 13.9276 38.0951C13.7989 37.9664 13.7266 37.7918 13.7266 37.6098V30.8152C13.7266 30.6332 13.7989 30.4586 13.9276 30.3299C14.0563 30.2012 14.2309 30.1289 14.4129 30.1289H22.6487C22.8308 30.1289 23.0053 30.2012 23.134 30.3299C23.2627 30.4586 23.3351 30.6332 23.3351 30.8152V37.6098C23.3351 37.7918 23.2627 37.9664 23.134 38.0951C23.0053 38.2238 22.8308 38.2961 22.6487 38.2961ZM15.0992 36.9235H21.9624V31.5015H15.0992V36.9235Z" fill="#2E2E2E"/>
<path d="M22.6487 63.0042H14.4129C14.2309 63.0042 14.0563 62.9319 13.9276 62.8032C13.7989 62.6745 13.7266 62.4999 13.7266 62.3179V42.9637C13.7266 42.7816 13.7989 42.6071 13.9276 42.4784C14.0563 42.3497 14.2309 42.2773 14.4129 42.2773H22.6487C22.8308 42.2773 23.0053 42.3497 23.134 42.4784C23.2627 42.6071 23.3351 42.7816 23.3351 42.9637V62.3179C23.3351 62.4999 23.2627 62.6745 23.134 62.8032C23.0053 62.9319 22.8308 63.0042 22.6487 63.0042ZM15.0992 61.6316H21.9624V43.65H15.0992V61.6316Z" fill="#2E2E2E"/>
<path d="M22.6487 14.0023H14.4129C14.2309 14.0023 14.0563 13.93 13.9276 13.8013C13.7989 13.6726 13.7266 13.498 13.7266 13.316C13.7266 12.0418 14.2327 10.8198 15.1337 9.91885C16.0347 9.01788 17.2566 8.51172 18.5308 8.51172C19.805 8.51172 21.027 9.01788 21.9279 9.91885C22.8289 10.8198 23.3351 12.0418 23.3351 13.316C23.3351 13.498 23.2627 13.6726 23.134 13.8013C23.0053 13.93 22.8308 14.0023 22.6487 14.0023ZM15.1678 12.6296H21.8938C21.7363 11.8539 21.3154 11.1565 20.7025 10.6555C20.0896 10.1546 19.3224 9.88092 18.5308 9.88092C17.7392 9.88092 16.972 10.1546 16.3591 10.6555C15.7462 11.1565 15.3254 11.8539 15.1678 12.6296Z" fill="#2E2E2E"/>
<path d="M18.5301 9.74669C18.348 9.74669 18.1735 9.67438 18.0448 9.54567C17.9161 9.41696 17.8438 9.24239 17.8438 9.06037V7.82499C17.8438 7.64297 17.9161 7.4684 18.0448 7.33969C18.1735 7.21098 18.348 7.13867 18.5301 7.13867C18.7121 7.13867 18.8867 7.21098 19.0154 7.33969C19.1441 7.4684 19.2164 7.64297 19.2164 7.82499V9.06037C19.2164 9.24239 19.1441 9.41696 19.0154 9.54567C18.8867 9.67438 18.7121 9.74669 18.5301 9.74669Z" fill="#2E2E2E"/>
<path d="M30.4723 43.9252H27.3152C27.1332 43.9252 26.9586 43.8529 26.8299 43.7241C26.7012 43.5954 26.6289 43.4209 26.6289 43.2388V39.4641C26.6289 38.8634 26.8675 38.2873 27.2923 37.8626C27.717 37.4378 28.2931 37.1992 28.8938 37.1992C29.4944 37.1992 30.0705 37.4378 30.4953 37.8626C30.92 38.2873 31.1586 38.8634 31.1586 39.4641V43.2388C31.1586 43.4209 31.0863 43.5954 30.9576 43.7241C30.8289 43.8529 30.6543 43.9252 30.4723 43.9252ZM28.0015 42.5525H29.786V39.4641C29.786 39.2274 29.692 39.0005 29.5247 38.8332C29.3573 38.6659 29.1304 38.5719 28.8938 38.5719C28.6571 38.5719 28.4302 38.6659 28.2629 38.8332C28.0955 39.0005 28.0015 39.2274 28.0015 39.4641V42.5525Z" fill="#2E2E2E"/>
<path d="M36.5465 43.9252H33.3894C33.2074 43.9252 33.0329 43.8529 32.9041 43.7241C32.7754 43.5954 32.7031 43.4209 32.7031 43.2388V39.4641C32.7031 38.8634 32.9417 38.2873 33.3665 37.8626C33.7912 37.4378 34.3673 37.1992 34.968 37.1992C35.5687 37.1992 36.1447 37.4378 36.5695 37.8626C36.9942 38.2873 37.2328 38.8634 37.2328 39.4641V43.2388C37.2328 43.4209 37.1605 43.5954 37.0318 43.7241C36.9031 43.8529 36.7285 43.9252 36.5465 43.9252ZM34.0758 42.5525H35.8602V39.4641C35.8602 39.2274 35.7662 39.0005 35.5989 38.8332C35.4316 38.6659 35.2046 38.5719 34.968 38.5719C34.7314 38.5719 34.5044 38.6659 34.3371 38.8332C34.1698 39.0005 34.0758 39.2274 34.0758 39.4641V42.5525Z" fill="#2E2E2E"/>
<path d="M42.6207 43.9252H39.4637C39.2816 43.9252 39.1071 43.8529 38.9784 43.7241C38.8497 43.5954 38.7773 43.4209 38.7773 43.2388V39.4641C38.7773 38.8634 39.016 38.2873 39.4407 37.8626C39.8654 37.4378 40.4415 37.1992 41.0422 37.1992C41.6429 37.1992 42.219 37.4378 42.6437 37.8626C43.0684 38.2873 43.3071 38.8634 43.3071 39.4641V43.2388C43.3071 43.4209 43.2348 43.5954 43.106 43.7241C42.9773 43.8529 42.8028 43.9252 42.6207 43.9252ZM40.15 42.5525H41.9344V39.4641C41.9344 39.2274 41.8404 39.0005 41.6731 38.8332C41.5058 38.6659 41.2788 38.5719 41.0422 38.5719C40.8056 38.5719 40.5786 38.6659 40.4113 38.8332C40.244 39.0005 40.15 39.2274 40.15 39.4641V42.5525Z" fill="#2E2E2E"/>
<path d="M47.6313 63.0051H22.6492C22.4672 63.0051 22.2926 62.9328 22.1639 62.8041C22.0352 62.6754 21.9629 62.5008 21.9629 62.3188V43.2391C21.9629 43.057 22.0352 42.8825 22.1639 42.7538C22.2926 42.625 22.4672 42.5527 22.6492 42.5527H47.6313C47.8133 42.5527 47.9879 42.625 48.1166 42.7538C48.2453 42.8825 48.3176 43.057 48.3176 43.2391V62.3188C48.3176 62.5008 48.2453 62.6754 48.1166 62.8041C47.9879 62.9328 47.8133 63.0051 47.6313 63.0051ZM23.3355 61.6325H46.945V43.9254H23.3355V61.6325Z" fill="#2E2E2E"/>
<path d="M18.5301 63.0042C18.348 63.0042 18.1735 62.9319 18.0448 62.8032C17.9161 62.6745 17.8438 62.4999 17.8438 62.3179V42.9637C17.8438 42.7816 17.9161 42.6071 18.0448 42.4784C18.1735 42.3497 18.348 42.2773 18.5301 42.2773C18.7121 42.2773 18.8867 42.3497 19.0154 42.4784C19.1441 42.6071 19.2164 42.7816 19.2164 42.9637V62.3179C19.2164 62.4999 19.1441 62.6745 19.0154 62.8032C18.8867 62.9319 18.7121 63.0042 18.5301 63.0042Z" fill="#2E2E2E"/>
<path d="M51.7488 63.0042C51.5668 63.0042 51.3922 62.9319 51.2635 62.8032C51.1348 62.6745 51.0625 62.4999 51.0625 62.3179V42.9637C51.0625 42.7816 51.1348 42.6071 51.2635 42.4784C51.3922 42.3497 51.5668 42.2773 51.7488 42.2773C51.9308 42.2773 52.1054 42.3497 52.2341 42.4784C52.3628 42.6071 52.4351 42.7816 52.4351 42.9637V62.3179C52.4351 62.4999 52.3628 62.6745 52.2341 62.8032C52.1054 62.9319 51.9308 63.0042 51.7488 63.0042Z" fill="#2E2E2E"/>
<path d="M51.7488 38.1586C51.5668 38.1586 51.3922 38.0863 51.2635 37.9576C51.1348 37.8289 51.0625 37.6543 51.0625 37.4723V30.8836C51.0625 30.7016 51.1348 30.527 51.2635 30.3983C51.3922 30.2696 51.5668 30.1973 51.7488 30.1973C51.9308 30.1973 52.1054 30.2696 52.2341 30.3983C52.3628 30.527 52.4351 30.7016 52.4351 30.8836V37.4723C52.4351 37.6543 52.3628 37.8289 52.2341 37.9576C52.1054 38.0863 51.9308 38.1586 51.7488 38.1586Z" fill="#2E2E2E"/>
<path d="M51.7488 26.0805C51.5668 26.0805 51.3922 26.0082 51.2635 25.8794C51.1348 25.7507 51.0625 25.5762 51.0625 25.3941V18.8055C51.0625 18.6234 51.1348 18.4489 51.2635 18.3202C51.3922 18.1914 51.5668 18.1191 51.7488 18.1191C51.9308 18.1191 52.1054 18.1914 52.2341 18.3202C52.3628 18.4489 52.4351 18.6234 52.4351 18.8055V25.3941C52.4351 25.5762 52.3628 25.7507 52.2341 25.8794C52.1054 26.0082 51.9308 26.0805 51.7488 26.0805Z" fill="#2E2E2E"/>
<path d="M18.5301 38.1586C18.348 38.1586 18.1735 38.0863 18.0448 37.9576C17.9161 37.8289 17.8438 37.6543 17.8438 37.4723V30.8836C17.8438 30.7016 17.9161 30.527 18.0448 30.3983C18.1735 30.2696 18.348 30.1973 18.5301 30.1973C18.7121 30.1973 18.8867 30.2696 19.0154 30.3983C19.1441 30.527 19.2164 30.7016 19.2164 30.8836V37.4723C19.2164 37.6543 19.1441 37.8289 19.0154 37.9576C18.8867 38.0863 18.7121 38.1586 18.5301 38.1586Z" fill="#2E2E2E"/>
<path d="M18.5301 26.0805C18.348 26.0805 18.1735 26.0082 18.0448 25.8794C17.9161 25.7507 17.8438 25.5762 17.8438 25.3941V18.8055C17.8438 18.6234 17.9161 18.4489 18.0448 18.3202C18.1735 18.1914 18.348 18.1191 18.5301 18.1191C18.7121 18.1191 18.8867 18.1914 19.0154 18.3202C19.1441 18.4489 19.2164 18.6234 19.2164 18.8055V25.3941C19.2164 25.5762 19.1441 25.7507 19.0154 25.8794C18.8867 26.0082 18.7121 26.0805 18.5301 26.0805Z" fill="#2E2E2E"/>
<path d="M16.4715 41.454C16.2895 41.454 16.1149 41.3817 15.9862 41.253C15.8575 41.1243 15.7852 40.9497 15.7852 40.7677V39.9441C15.7852 39.7621 15.8575 39.5875 15.9862 39.4588C16.1149 39.3301 16.2895 39.2578 16.4715 39.2578C16.6535 39.2578 16.8281 39.3301 16.9568 39.4588C17.0855 39.5875 17.1578 39.7621 17.1578 39.9441V40.7677C17.1578 40.9497 17.0855 41.1243 16.9568 41.253C16.8281 41.3817 16.6535 41.454 16.4715 41.454Z" fill="#2E2E2E"/>
<path d="M20.5906 41.454C20.4086 41.454 20.234 41.3817 20.1053 41.253C19.9766 41.1243 19.9043 40.9497 19.9043 40.7677V39.9441C19.9043 39.7621 19.9766 39.5875 20.1053 39.4588C20.234 39.3301 20.4086 39.2578 20.5906 39.2578C20.7726 39.2578 20.9472 39.3301 21.0759 39.4588C21.2046 39.5875 21.2769 39.7621 21.2769 39.9441V40.7677C21.2769 40.9497 21.2046 41.1243 21.0759 41.253C20.9472 41.3817 20.7726 41.454 20.5906 41.454Z" fill="#2E2E2E"/>
<path d="M49.6902 41.454C49.5082 41.454 49.3336 41.3817 49.2049 41.253C49.0762 41.1243 49.0039 40.9497 49.0039 40.7677V39.9441C49.0039 39.7621 49.0762 39.5875 49.2049 39.4588C49.3336 39.3301 49.5082 39.2578 49.6902 39.2578C49.8723 39.2578 50.0468 39.3301 50.1755 39.4588C50.3042 39.5875 50.3765 39.7621 50.3765 39.9441V40.7677C50.3765 40.9497 50.3042 41.1243 50.1755 41.253C50.0468 41.3817 49.8723 41.454 49.6902 41.454Z" fill="#2E2E2E"/>
<path d="M53.8074 41.454C53.6254 41.454 53.4508 41.3817 53.3221 41.253C53.1934 41.1243 53.1211 40.9497 53.1211 40.7677V39.9441C53.1211 39.7621 53.1934 39.5875 53.3221 39.4588C53.4508 39.3301 53.6254 39.2578 53.8074 39.2578C53.9894 39.2578 54.164 39.3301 54.2927 39.4588C54.4214 39.5875 54.4937 39.7621 54.4937 39.9441V40.7677C54.4937 40.9497 54.4214 41.1243 54.2927 41.253C54.164 41.3817 53.9894 41.454 53.8074 41.454Z" fill="#2E2E2E"/>
<path d="M49.6902 29.2372C49.5082 29.2372 49.3336 29.1649 49.2049 29.0362C49.0762 28.9075 49.0039 28.7329 49.0039 28.5509V27.7273C49.0039 27.5453 49.0762 27.3707 49.2049 27.242C49.3336 27.1133 49.5082 27.041 49.6902 27.041C49.8723 27.041 50.0468 27.1133 50.1755 27.242C50.3042 27.3707 50.3765 27.5453 50.3765 27.7273V28.5509C50.3765 28.7329 50.3042 28.9075 50.1755 29.0362C50.0468 29.1649 49.8723 29.2372 49.6902 29.2372Z" fill="#2E2E2E"/>
<path d="M53.8074 29.2372C53.6254 29.2372 53.4508 29.1649 53.3221 29.0362C53.1934 28.9075 53.1211 28.7329 53.1211 28.5509V27.7273C53.1211 27.5453 53.1934 27.3707 53.3221 27.242C53.4508 27.1133 53.6254 27.041 53.8074 27.041C53.9894 27.041 54.164 27.1133 54.2927 27.242C54.4214 27.3707 54.4937 27.5453 54.4937 27.7273V28.5509C54.4937 28.7329 54.4214 28.9075 54.2927 29.0362C54.164 29.1649 53.9894 29.2372 53.8074 29.2372Z" fill="#2E2E2E"/>
<path d="M49.6902 17.0888C49.5082 17.0888 49.3336 17.0165 49.2049 16.8878C49.0762 16.7591 49.0039 16.5845 49.0039 16.4025V15.5789C49.0039 15.3969 49.0762 15.2223 49.2049 15.0936C49.3336 14.9649 49.5082 14.8926 49.6902 14.8926C49.8723 14.8926 50.0468 14.9649 50.1755 15.0936C50.3042 15.2223 50.3765 15.3969 50.3765 15.5789V16.4025C50.3765 16.5845 50.3042 16.7591 50.1755 16.8878C50.0468 17.0165 49.8723 17.0888 49.6902 17.0888Z" fill="#2E2E2E"/>
<path d="M53.8074 17.0888C53.6254 17.0888 53.4508 17.0165 53.3221 16.8878C53.1934 16.7591 53.1211 16.5845 53.1211 16.4025V15.5789C53.1211 15.3969 53.1934 15.2223 53.3221 15.0936C53.4508 14.9649 53.6254 14.8926 53.8074 14.8926C53.9894 14.8926 54.164 14.9649 54.2927 15.0936C54.4214 15.2223 54.4937 15.3969 54.4937 15.5789V16.4025C54.4937 16.5845 54.4214 16.7591 54.2927 16.8878C54.164 17.0165 53.9894 17.0888 53.8074 17.0888Z" fill="#2E2E2E"/>
<path d="M16.4715 29.2372C16.2895 29.2372 16.1149 29.1649 15.9862 29.0362C15.8575 28.9075 15.7852 28.7329 15.7852 28.5509V27.7273C15.7852 27.5453 15.8575 27.3707 15.9862 27.242C16.1149 27.1133 16.2895 27.041 16.4715 27.041C16.6535 27.041 16.8281 27.1133 16.9568 27.242C17.0855 27.3707 17.1578 27.5453 17.1578 27.7273V28.5509C17.1578 28.7329 17.0855 28.9075 16.9568 29.0362C16.8281 29.1649 16.6535 29.2372 16.4715 29.2372Z" fill="#2E2E2E"/>
<path d="M20.5906 29.2372C20.4086 29.2372 20.234 29.1649 20.1053 29.0362C19.9766 28.9075 19.9043 28.7329 19.9043 28.5509V27.7273C19.9043 27.5453 19.9766 27.3707 20.1053 27.242C20.234 27.1133 20.4086 27.041 20.5906 27.041C20.7726 27.041 20.9472 27.1133 21.0759 27.242C21.2046 27.3707 21.2769 27.5453 21.2769 27.7273V28.5509C21.2769 28.7329 21.2046 28.9075 21.0759 29.0362C20.9472 29.1649 20.7726 29.2372 20.5906 29.2372Z" fill="#2E2E2E"/>
<path d="M16.4715 17.0888C16.2895 17.0888 16.1149 17.0165 15.9862 16.8878C15.8575 16.7591 15.7852 16.5845 15.7852 16.4025V15.5789C15.7852 15.3969 15.8575 15.2223 15.9862 15.0936C16.1149 14.9649 16.2895 14.8926 16.4715 14.8926C16.6535 14.8926 16.8281 14.9649 16.9568 15.0936C17.0855 15.2223 17.1578 15.3969 17.1578 15.5789V16.4025C17.1578 16.5845 17.0855 16.7591 16.9568 16.8878C16.8281 17.0165 16.6535 17.0888 16.4715 17.0888Z" fill="#2E2E2E"/>
<path d="M20.5906 17.0888C20.4086 17.0888 20.234 17.0165 20.1053 16.8878C19.9766 16.7591 19.9043 16.5845 19.9043 16.4025V15.5789C19.9043 15.3969 19.9766 15.2223 20.1053 15.0936C20.234 14.9649 20.4086 14.8926 20.5906 14.8926C20.7726 14.8926 20.9472 14.9649 21.0759 15.0936C21.2046 15.2223 21.2769 15.3969 21.2769 15.5789V16.4025C21.2769 16.5845 21.2046 16.7591 21.0759 16.8878C20.9472 17.0165 20.7726 17.0888 20.5906 17.0888Z" fill="#2E2E2E"/>
<path d="M16.4715 41.454C16.2895 41.454 16.1149 41.3817 15.9862 41.253C15.8575 41.1243 15.7852 40.9497 15.7852 40.7677V39.9441C15.7852 39.7621 15.8575 39.5875 15.9862 39.4588C16.1149 39.3301 16.2895 39.2578 16.4715 39.2578C16.6535 39.2578 16.8281 39.3301 16.9568 39.4588C17.0855 39.5875 17.1578 39.7621 17.1578 39.9441V40.7677C17.1578 40.9497 17.0855 41.1243 16.9568 41.253C16.8281 41.3817 16.6535 41.454 16.4715 41.454Z" fill="#2E2E2E"/>
<path d="M20.5906 41.454C20.4086 41.454 20.234 41.3817 20.1053 41.253C19.9766 41.1243 19.9043 40.9497 19.9043 40.7677V39.9441C19.9043 39.7621 19.9766 39.5875 20.1053 39.4588C20.234 39.3301 20.4086 39.2578 20.5906 39.2578C20.7726 39.2578 20.9472 39.3301 21.0759 39.4588C21.2046 39.5875 21.2769 39.7621 21.2769 39.9441V40.7677C21.2769 40.9497 21.2046 41.1243 21.0759 41.253C20.9472 41.3817 20.7726 41.454 20.5906 41.454Z" fill="#2E2E2E"/>
<path d="M35.1394 35.6908C34.9574 35.6908 34.7829 35.6185 34.6541 35.4898C34.5254 35.3611 34.4531 35.1865 34.4531 35.0045V29.6512C34.4531 29.4691 34.5254 29.2946 34.6541 29.1659C34.7829 29.0372 34.9574 28.9648 35.1394 28.9648C35.3215 28.9648 35.496 29.0372 35.6247 29.1659C35.7535 29.2946 35.8258 29.4691 35.8258 29.6512V35.0045C35.8258 35.1865 35.7535 35.3611 35.6247 35.4898C35.496 35.6185 35.3215 35.6908 35.1394 35.6908Z" fill="#2E2E2E"/>
<path d="M31.0223 35.6908C30.8402 35.6908 30.6657 35.6185 30.537 35.4898C30.4082 35.3611 30.3359 35.1865 30.3359 35.0045V29.6512C30.3359 29.4691 30.4082 29.2946 30.537 29.1659C30.6657 29.0372 30.8402 28.9648 31.0223 28.9648C31.2043 28.9648 31.3789 29.0372 31.5076 29.1659C31.6363 29.2946 31.7086 29.4691 31.7086 29.6512V35.0045C31.7086 35.1865 31.6363 35.3611 31.5076 35.4898C31.3789 35.6185 31.2043 35.6908 31.0223 35.6908Z" fill="#2E2E2E"/>
<path d="M39.2586 35.6908C39.0766 35.6908 38.902 35.6185 38.7733 35.4898C38.6446 35.3611 38.5723 35.1865 38.5723 35.0045V29.6512C38.5723 29.4691 38.6446 29.2946 38.7733 29.1659C38.902 29.0372 39.0766 28.9648 39.2586 28.9648C39.4406 28.9648 39.6152 29.0372 39.7439 29.1659C39.8726 29.2946 39.9449 29.4691 39.9449 29.6512V35.0045C39.9449 35.1865 39.8726 35.3611 39.7439 35.4898C39.6152 35.6185 39.4406 35.6908 39.2586 35.6908Z" fill="#2E2E2E"/>
<path d="M26.9051 35.6908C26.723 35.6908 26.5485 35.6185 26.4198 35.4898C26.2911 35.3611 26.2188 35.1865 26.2188 35.0045V29.6512C26.2188 29.4691 26.2911 29.2946 26.4198 29.1659C26.5485 29.0372 26.723 28.9648 26.9051 28.9648C27.0871 28.9648 27.2617 29.0372 27.3904 29.1659C27.5191 29.2946 27.5914 29.4691 27.5914 29.6512V35.0045C27.5914 35.1865 27.5191 35.3611 27.3904 35.4898C27.2617 35.6185 27.0871 35.6908 26.9051 35.6908Z" fill="#2E2E2E"/>
<path d="M43.3758 35.6908C43.1938 35.6908 43.0192 35.6185 42.8905 35.4898C42.7618 35.3611 42.6895 35.1865 42.6895 35.0045V29.6512C42.6895 29.4691 42.7618 29.2946 42.8905 29.1659C43.0192 29.0372 43.1938 28.9648 43.3758 28.9648C43.5578 28.9648 43.7324 29.0372 43.8611 29.1659C43.9898 29.2946 44.0621 29.4691 44.0621 29.6512V35.0045C44.0621 35.1865 43.9898 35.3611 43.8611 35.4898C43.7324 35.6185 43.5578 35.6908 43.3758 35.6908Z" fill="#2E2E2E"/>
</svg>
