<svg width="62" height="63" viewBox="0 0 62 63" fill="none" xmlns="http://www.w3.org/2000/svg">
<path fill-rule="evenodd" clip-rule="evenodd" d="M55.8842 62.836H5.54198C5.16321 62.836 4.85547 62.5288 4.85547 62.15L4.85576 41.4143C4.85576 41.0354 5.16278 40.7285 5.5414 40.7285C5.92075 40.7284 6.22748 41.0355 6.22748 41.4144V61.4641H55.198V41.4143C55.198 41.0354 55.505 40.7285 55.8838 40.7285C56.263 40.7284 56.5699 41.0355 56.5699 41.4144L56.5703 62.15C56.5703 62.5286 56.2624 62.8361 55.8842 62.836Z" fill="#2E2E2E"/>
<path fill-rule="evenodd" clip-rule="evenodd" d="M34.6888 62.8405C34.31 62.8405 34.0026 62.5334 34.0026 62.1546L34.0027 51.2605C34.0027 51.2447 34.0025 51.2293 34.0041 51.2136C34.103 49.7671 33.1866 49.107 31.6845 48.15C31.3633 47.9446 31.033 47.7346 30.7115 47.5061C30.3904 47.7344 30.0612 47.9448 29.7382 48.15C28.2368 49.107 27.3202 49.7671 27.4202 51.2136C27.4206 51.2292 27.4217 51.2448 27.4217 51.2605L27.422 62.1546C27.422 62.5332 27.1144 62.8407 26.7357 62.8407C26.357 62.8405 26.0498 62.5334 26.0498 62.1546L26.0502 51.2828C25.903 48.9671 27.5488 47.9187 29.0008 46.9931C29.4387 46.7144 29.8897 46.4266 30.2841 46.1124C30.5345 45.9131 30.8886 45.9131 31.1388 46.1124C31.5332 46.4263 31.9861 46.7145 32.4219 46.9931C33.876 47.9185 35.5202 48.9671 35.3744 51.2829L35.375 62.1546C35.375 62.5332 35.0673 62.8407 34.6888 62.8405Z" fill="#2E2E2E"/>
<path fill-rule="evenodd" clip-rule="evenodd" d="M43.5205 62.8392C43.1424 62.8392 42.8346 62.5321 42.8346 62.1533L42.8351 54.7585C42.8351 54.7427 42.8346 54.7274 42.836 54.7116C42.882 54.0504 42.5145 53.7481 41.6013 53.1666C41.4627 53.0781 41.3212 52.9882 41.181 52.893C41.0401 52.9882 40.8981 53.0782 40.7595 53.1666C39.8479 53.7479 39.4806 54.0506 39.5262 54.7116C39.5264 54.7272 39.5278 54.7429 39.5278 54.7587L39.5282 62.1533C39.5282 62.5319 39.2204 62.8394 38.8417 62.8394C38.4634 62.8392 38.1558 62.5321 38.1558 62.1533L38.1559 54.7806C38.0633 53.2581 39.149 52.5662 40.0221 52.0096C40.2852 51.8423 40.5324 51.6843 40.7539 51.5089C41.0042 51.3095 41.3583 51.3096 41.6085 51.5088C41.8286 51.684 42.0757 51.8423 42.3387 52.0096C43.2119 52.5661 44.298 53.2583 44.2066 54.7804L44.2067 62.1533C44.2067 62.5319 43.8993 62.8394 43.5205 62.8392Z" fill="#2E2E2E"/>
<path fill-rule="evenodd" clip-rule="evenodd" d="M51.9483 62.8392C51.5695 62.8392 51.2619 62.5321 51.2619 62.1533L51.2621 54.7586C51.2621 54.7428 51.2619 54.7274 51.2632 54.7116C51.309 54.0505 50.9417 53.7481 50.0301 53.1667C49.8916 53.0779 49.7499 52.9881 49.6084 52.893C49.4685 52.9879 49.3269 53.0781 49.1883 53.1667C48.2755 53.7479 47.9079 54.0506 47.9536 54.7117C47.9553 54.7272 47.955 54.7429 47.955 54.7587L47.9553 62.1533C47.9553 62.5319 47.6479 62.8394 47.2691 62.8394C46.8903 62.8392 46.583 62.5321 46.583 62.1533L46.5836 54.7804C46.4917 53.2578 47.5778 52.5661 48.4509 52.0096C48.7129 51.8423 48.961 51.6843 49.1812 51.5088C49.4313 51.3095 49.7857 51.3096 50.0357 51.5088C50.2564 51.6841 50.5045 51.8423 50.7675 52.0096C51.641 52.5661 52.7267 53.2581 52.6338 54.7806V62.1533C52.6338 62.5319 52.3266 62.8394 51.9483 62.8392Z" fill="#2E2E2E"/>
<path fill-rule="evenodd" clip-rule="evenodd" d="M14.1552 62.8392C13.7765 62.8392 13.469 62.5321 13.469 62.1533V54.7586C13.469 54.7428 13.4703 54.7274 13.4703 54.7116C13.5167 54.0505 13.1488 53.7481 12.237 53.1667C12.0986 53.0779 11.957 52.9881 11.8155 52.893C11.6755 52.9879 11.534 53.0781 11.3954 53.1667C10.4839 53.7479 10.1163 54.0506 10.1607 54.7117C10.1623 54.7272 10.1621 54.7429 10.1621 54.7587L10.1623 62.1533C10.1623 62.5319 9.85626 62.8394 9.47618 62.8394C9.09799 62.8392 8.7901 62.5321 8.7901 62.1533L8.79054 54.7804C8.69936 53.2578 9.7848 52.5661 10.658 52.0096C10.9211 51.8423 11.1681 51.6843 11.3882 51.5088C11.6388 51.3095 11.9941 51.3096 12.2443 51.5088C12.4646 51.6841 12.7116 51.8423 12.9746 52.0096C13.8478 52.5661 14.9338 53.2581 14.8409 54.7806L14.8415 62.1533C14.8415 62.5319 14.535 62.8394 14.1552 62.8392Z" fill="#2E2E2E"/>
<path fill-rule="evenodd" clip-rule="evenodd" d="M22.5837 62.8392C22.2049 62.8392 21.8972 62.5321 21.8972 62.1533L21.8975 54.7586C21.8975 54.7428 21.8972 54.7274 21.8987 54.7117C21.9445 54.0505 21.5771 53.7481 20.6639 53.1667C20.5259 53.0779 20.3839 52.9881 20.2438 52.893C20.1026 52.9879 19.9609 53.0781 19.8221 53.1667C18.9104 53.7479 18.5432 54.0506 18.5889 54.7116C18.5907 54.7272 18.5903 54.7429 18.5903 54.7587L18.5907 62.1533C18.5907 62.5319 18.2831 62.8394 17.9044 62.8394C17.5259 62.8392 17.2184 62.5321 17.2184 62.1533V54.7806C17.1258 53.2581 18.2117 52.5661 19.0848 52.0096C19.3484 51.8423 19.5963 51.6843 19.8165 51.5088C20.0667 51.3095 20.421 51.3096 20.671 51.5088C20.8912 51.6841 21.1398 51.8423 21.4013 52.0096C22.2751 52.5661 23.3605 53.258 23.2692 54.7804V62.1533C23.2692 62.5319 22.9625 62.8392 22.5837 62.8392Z" fill="#2E2E2E"/>
<path fill-rule="evenodd" clip-rule="evenodd" d="M45.79 40.7316H58.1591V25.9265H45.79V40.7316ZM58.8446 42.1034H45.1045C44.7237 42.1034 44.418 41.7964 44.418 41.4176L44.4183 25.2405C44.4183 24.8617 44.7237 24.5547 45.1039 24.5547H58.8446C59.2234 24.5547 59.5304 24.8618 59.5304 25.2406L59.5307 41.4175C59.5307 41.7963 59.2233 42.1036 58.8446 42.1034Z" fill="#2E2E2E"/>
<path fill-rule="evenodd" clip-rule="evenodd" d="M58.846 25.9247H45.1058C44.9423 25.9247 44.785 25.8672 44.6606 25.7621L42.7688 24.1584C42.4788 23.9136 42.4428 23.4809 42.6885 23.1919C42.9333 22.9025 43.366 22.867 43.6546 23.1119L45.3572 24.5529H58.5945L60.2967 23.1117C60.5854 22.867 61.018 22.9028 61.2625 23.1919C61.5071 23.4808 61.4711 23.9136 61.1824 24.1586L59.2891 25.7621C59.1662 25.8672 59.0089 25.9247 58.846 25.9247Z" fill="#2E2E2E"/>
<path fill-rule="evenodd" clip-rule="evenodd" d="M57.1493 25.9269C56.7711 25.9269 56.4634 25.6199 56.4634 25.2409L56.4638 20.8426H47.4875V25.2408C47.4875 25.6197 47.1801 25.9269 46.8013 25.9269C46.4225 25.9269 46.1152 25.6199 46.1152 25.2409L46.1158 20.1566C46.1158 19.7779 46.4225 19.4708 46.8013 19.4708L57.1493 19.4707C57.5281 19.4707 57.8354 19.7779 57.8354 20.1568L57.8356 25.2408C57.8356 25.6197 57.528 25.9269 57.1493 25.9269Z" fill="#2E2E2E"/>
<path fill-rule="evenodd" clip-rule="evenodd" d="M57.1487 20.8401H46.8007C46.6534 20.8401 46.5107 20.7929 46.3919 20.7054L44.6959 19.448C44.3917 19.2226 44.3269 18.793 44.5529 18.4884C44.7789 18.1842 45.2073 18.1203 45.5116 18.3458L47.0266 19.4682H56.9216L58.4368 18.3458C58.7411 18.1204 59.1709 18.1842 59.3967 18.4884C59.6227 18.793 59.5581 19.2226 59.2536 19.4482L57.5576 20.7054C57.4394 20.7928 57.296 20.8402 57.1487 20.8401Z" fill="#2E2E2E"/>
<path fill-rule="evenodd" clip-rule="evenodd" d="M55.3503 20.8426C54.9716 20.8426 54.664 20.5356 54.664 20.1568L54.6641 16.2332H49.2822V20.1567C49.2822 20.5356 48.9749 20.8428 48.5962 20.8428C48.2179 20.8426 47.9102 20.5356 47.9102 20.1568L47.9104 15.5473C47.9104 15.1685 48.2175 14.8613 48.5962 14.8613H55.3503C55.7304 14.8613 56.036 15.1685 56.036 15.5473L56.0364 20.1567C56.0364 20.5356 55.7301 20.8428 55.3503 20.8426Z" fill="#2E2E2E"/>
<path fill-rule="evenodd" clip-rule="evenodd" d="M55.3512 16.2288H48.5975C48.4502 16.2288 48.3069 16.1817 48.1896 16.0941L46.492 14.8368C46.1879 14.6114 46.1247 14.1816 46.3491 13.8773C46.5749 13.5728 47.005 13.509 47.3093 13.7345L48.8245 14.8571H55.1255L56.64 13.7345C56.9447 13.5088 57.3745 13.5729 57.5987 13.8773C57.8251 14.1816 57.7603 14.6114 57.4558 14.8368L55.7601 16.0941C55.6424 16.1817 55.498 16.2289 55.3512 16.2288Z" fill="#2E2E2E"/>
<path fill-rule="evenodd" clip-rule="evenodd" d="M3.26503 40.7316H15.6349V25.9265H3.26503V40.7316ZM16.321 42.1034H2.5788C2.20003 42.1034 1.89258 41.7964 1.89258 41.4176L1.89272 25.2405C1.89272 24.8617 2.19989 24.5547 2.57851 24.5547H16.321C16.6997 24.5547 17.0066 24.8618 17.0066 25.2406V41.4175C17.0066 41.7963 16.6993 42.1036 16.321 42.1034Z" fill="#2E2E2E"/>
<path fill-rule="evenodd" clip-rule="evenodd" d="M16.321 25.9247H2.57883C2.41749 25.9247 2.25978 25.8672 2.13555 25.7621L0.242565 24.1585C-0.0461881 23.9136 -0.0822823 23.4809 0.16197 23.1919C0.407816 22.9026 0.840801 22.8671 1.12941 23.1119L2.83033 24.5529H16.0697L17.77 23.1117C18.0599 22.8671 18.4929 22.9026 18.7373 23.1919C18.9821 23.4808 18.9459 23.9136 18.6573 24.1586L16.7641 25.7621C16.6393 25.8672 16.4822 25.9247 16.321 25.9247Z" fill="#2E2E2E"/>
<path fill-rule="evenodd" clip-rule="evenodd" d="M14.6241 25.9269C14.244 25.9269 13.9379 25.6199 13.9379 25.2409V20.8426H4.96229V25.2408C4.96229 25.6197 4.65455 25.9269 4.27578 25.9269C3.89744 25.9269 3.58984 25.6199 3.58984 25.2409L3.58999 20.1566C3.58999 19.7779 3.89701 19.4708 4.27578 19.4708L14.6241 19.4707C15.0029 19.4707 15.3097 19.7779 15.3097 20.1568L15.3103 25.2408C15.3103 25.6197 15.0024 25.9269 14.6241 25.9269Z" fill="#2E2E2E"/>
<path fill-rule="evenodd" clip-rule="evenodd" d="M14.6255 20.8401H4.27767C4.13039 20.8401 3.98718 20.7929 3.8686 20.7054L2.17275 19.448C1.86806 19.2226 1.80355 18.793 2.02939 18.4884C2.25509 18.1842 2.68387 18.1203 2.98828 18.3458L4.50337 19.4682H14.3985L15.9131 18.3458C16.2179 18.1204 16.6474 18.1842 16.8732 18.4884C17.0982 18.793 17.0347 19.2226 16.7303 19.4482L15.0326 20.7054C14.9156 20.7928 14.7725 20.8402 14.6255 20.8401Z" fill="#2E2E2E"/>
<path fill-rule="evenodd" clip-rule="evenodd" d="M12.8265 20.8426C12.4483 20.8426 12.1405 20.5356 12.1405 20.1568L12.141 16.2332H6.75888V20.1567C6.75888 20.5356 6.45128 20.8428 6.07265 20.8428C5.69403 20.8426 5.38672 20.5356 5.38672 20.1568L5.3873 15.5473C5.3873 15.1685 5.69403 14.8613 6.07265 14.8613H12.8265C13.2052 14.8613 13.5124 15.1685 13.5124 15.5473L13.5126 20.1567C13.5126 20.5356 13.2052 20.8428 12.8265 20.8426Z" fill="#2E2E2E"/>
<path fill-rule="evenodd" clip-rule="evenodd" d="M12.826 16.2288H6.07233C5.92505 16.2288 5.78198 16.1817 5.66341 16.0941L3.96741 14.8368C3.6633 14.6114 3.59835 14.1816 3.8242 13.8773C4.05033 13.5728 4.48013 13.509 4.78453 13.7345L6.29991 14.8571H12.6003L14.1154 13.7345C14.4195 13.5088 14.8481 13.5729 15.0738 13.8773C15.3 14.1816 15.2355 14.6114 14.9311 14.8368L13.2349 16.0941C13.1166 16.1817 12.9733 16.2289 12.826 16.2288Z" fill="#2E2E2E"/>
<path fill-rule="evenodd" clip-rule="evenodd" d="M51.4932 45.0343H47.7235C47.3447 45.0343 47.0371 44.7271 47.0371 44.3483C47.0373 43.9694 47.3444 43.6621 47.7232 43.6621H51.4932C51.872 43.6621 52.179 43.9694 52.179 44.3483C52.1794 44.7271 51.8718 45.0343 51.4932 45.0343Z" fill="#2E2E2E"/>
<path fill-rule="evenodd" clip-rule="evenodd" d="M43.0677 45.0343H39.2973C38.9191 45.0343 38.6113 44.7271 38.6113 44.3483C38.6118 43.9694 38.9185 43.6621 39.2973 43.6621H43.0677C43.4465 43.6621 43.7532 43.9694 43.7532 44.3483C43.7532 44.7271 43.4459 45.0343 43.0677 45.0343Z" fill="#2E2E2E"/>
<path fill-rule="evenodd" clip-rule="evenodd" d="M34.7471 45.0341H26.6783C26.2995 45.0341 25.9922 44.7271 25.9922 44.3483C25.9928 43.9694 26.2995 43.6624 26.6783 43.6624L34.7471 43.6621C35.1259 43.6621 35.4328 43.9694 35.4328 44.3483C35.4334 44.7271 35.1256 45.0341 34.7471 45.0341Z" fill="#2E2E2E"/>
<path fill-rule="evenodd" clip-rule="evenodd" d="M22.1281 45.0343H18.3582C17.9795 45.0343 17.6719 44.7271 17.6719 44.3483C17.6722 43.9694 17.9792 43.6621 18.3578 43.6621H22.1281C22.5069 43.6621 22.8136 43.9694 22.8136 44.3483C22.8142 44.7271 22.5065 45.0343 22.1281 45.0343Z" fill="#2E2E2E"/>
<path fill-rule="evenodd" clip-rule="evenodd" d="M13.7016 45.0343H9.93037C9.55159 45.0343 9.24414 44.7271 9.24414 44.3483C9.24429 43.9694 9.5513 43.6621 9.93008 43.6621H13.7016C14.0802 43.6621 14.386 43.9694 14.386 44.3483C14.3863 44.7271 14.0802 45.0343 13.7016 45.0343Z" fill="#2E2E2E"/>
<path fill-rule="evenodd" clip-rule="evenodd" d="M51.4932 48.6493H47.7235C47.3447 48.6493 47.0371 48.3423 47.0371 47.9636C47.0373 47.5846 47.3444 47.2775 47.7232 47.2775L51.4932 47.2773C51.872 47.2773 52.179 47.5846 52.179 47.9636C52.1794 48.3423 51.8718 48.6495 51.4932 48.6493Z" fill="#2E2E2E"/>
<path fill-rule="evenodd" clip-rule="evenodd" d="M43.0677 48.6493H39.2973C38.9191 48.6493 38.6113 48.3423 38.6113 47.9636C38.6118 47.5846 38.9185 47.2775 39.2973 47.2775L43.0677 47.2773C43.4465 47.2773 43.7532 47.5846 43.7532 47.9636C43.7532 48.3423 43.4459 48.6495 43.0677 48.6493Z" fill="#2E2E2E"/>
<path fill-rule="evenodd" clip-rule="evenodd" d="M22.1281 48.6493H18.3582C17.9795 48.6493 17.6719 48.3423 17.6719 47.9636C17.6722 47.5846 17.9792 47.2775 18.3578 47.2775L22.1281 47.2773C22.5069 47.2773 22.8136 47.5846 22.8136 47.9636C22.8142 48.3423 22.5065 48.6495 22.1281 48.6493Z" fill="#2E2E2E"/>
<path fill-rule="evenodd" clip-rule="evenodd" d="M13.7016 48.6493H9.93037C9.55159 48.6493 9.24414 48.3423 9.24414 47.9636C9.24429 47.5846 9.5513 47.2775 9.93008 47.2775L13.7016 47.2773C14.0802 47.2773 14.386 47.5846 14.386 47.9636C14.3863 48.3423 14.0802 48.6495 13.7016 48.6493Z" fill="#2E2E2E"/>
<path fill-rule="evenodd" clip-rule="evenodd" d="M45.1044 32.4949H16.321C15.9422 32.4949 15.6348 32.1879 15.6348 31.8091C15.6349 31.4301 15.9419 31.123 16.3206 31.123H45.1044C45.4825 31.123 45.7898 31.4302 45.7898 31.8091C45.7899 32.1879 45.4831 32.4949 45.1044 32.4949Z" fill="#2E2E2E"/>
<path fill-rule="evenodd" clip-rule="evenodd" d="M39.6078 32.492C39.2291 32.492 38.9215 32.185 38.9215 31.8062L38.9217 19.5068H22.503V31.8062C22.503 32.185 22.1954 32.4922 21.8168 32.4922C21.4367 32.492 21.1309 32.185 21.1309 31.8062L21.1313 18.8207C21.1313 18.4419 21.4367 18.1348 21.8168 18.1348H39.6078C39.9865 18.1348 40.2935 18.4419 40.2935 18.8208L40.294 31.8062C40.294 32.185 39.9862 32.4922 39.6078 32.492Z" fill="#2E2E2E"/>
<path fill-rule="evenodd" clip-rule="evenodd" d="M39.6089 19.511H21.818C21.6913 19.511 21.565 19.4756 21.4579 19.409L18.8572 17.805C18.5356 17.6061 18.4338 17.1836 18.634 16.8611C18.8327 16.5388 19.2543 16.4384 19.5771 16.6374L22.0128 18.139H39.4148L41.8495 16.6374C42.171 16.4384 42.594 16.5388 42.7926 16.8611C42.9916 17.1835 42.8912 17.6061 42.5684 17.8052L39.9691 19.4088C39.8604 19.4756 39.7358 19.511 39.6089 19.511Z" fill="#2E2E2E"/>
<path fill-rule="evenodd" clip-rule="evenodd" d="M37.8186 19.5053C37.4398 19.5053 37.1322 19.1981 37.1322 18.8194L37.1325 14.4208H24.2919V18.8192C24.2919 19.198 23.9846 19.5053 23.6059 19.5053C23.2264 19.5053 22.9199 19.1981 22.9199 18.8194L22.9202 13.7349C22.9202 13.3563 23.2258 13.049 23.6059 13.049L37.8186 13.0488C38.1973 13.0488 38.5041 13.3563 38.5041 13.7349V18.8192C38.5041 19.198 38.1968 19.5053 37.8186 19.5053Z" fill="#2E2E2E"/>
<path fill-rule="evenodd" clip-rule="evenodd" d="M37.8199 14.424H23.6077C23.4933 14.424 23.3814 14.3959 23.2815 14.3419L20.9512 13.0846C20.6181 12.9047 20.492 12.4887 20.6719 12.1553C20.8522 11.8218 21.2679 11.6975 21.6023 11.8773L23.7808 13.052H37.647L39.8246 11.8771C40.1577 11.6977 40.5734 11.8219 40.7534 12.1553C40.9338 12.4887 40.8092 12.9049 40.4763 13.0847L38.1454 14.3419C38.0458 14.3959 37.9339 14.4241 37.8199 14.424Z" fill="#2E2E2E"/>
<path fill-rule="evenodd" clip-rule="evenodd" d="M35.3511 14.4212C34.9725 14.4212 34.6649 14.1139 34.6649 13.735L34.665 9.81146H26.7608V13.735C26.7608 14.1139 26.4534 14.4212 26.0746 14.4212C25.6945 14.4212 25.3887 14.1139 25.3887 13.735L25.3891 9.12567C25.3891 8.74661 25.6944 8.4396 26.0746 8.4396L35.3511 8.43945C35.7299 8.43945 36.0367 8.7469 36.0367 9.12567L36.0373 13.735C36.0373 14.1139 35.7296 14.4212 35.3511 14.4212Z" fill="#2E2E2E"/>
<path fill-rule="evenodd" clip-rule="evenodd" d="M35.3519 9.81476H26.0754C25.9616 9.81476 25.8495 9.78664 25.7495 9.73257L23.4187 8.47523C23.0864 8.29548 22.9614 7.87946 23.1401 7.54592C23.3203 7.21238 23.7374 7.08815 24.0703 7.26789L26.2483 8.4429H35.1789L37.357 7.26789C37.6896 7.0883 38.1054 7.21252 38.2855 7.54592C38.4657 7.87932 38.3411 8.29548 38.0083 8.47537L35.678 9.73257C35.5777 9.78664 35.4659 9.81476 35.3519 9.81476Z" fill="#2E2E2E"/>
<path fill-rule="evenodd" clip-rule="evenodd" d="M30.712 3.95308C30.3331 3.95308 30.0254 3.64592 30.0254 3.26715L30.0258 0.685929C30.0258 0.30716 30.3327 0 30.7115 0C31.0901 0 31.3974 0.30716 31.3974 0.686074L31.3975 3.267C31.3975 3.64592 31.0901 3.95322 30.712 3.95308Z" fill="#2E2E2E"/>
<path fill-rule="evenodd" clip-rule="evenodd" d="M35.3492 9.8142C35.009 9.8142 34.7141 9.56111 34.6698 9.21481C34.4186 7.23805 33.0879 5.50685 30.7113 4.06425C28.3362 5.50685 27.0056 7.2382 26.7541 9.21481C26.706 9.59039 26.3639 9.85653 25.9867 9.80869C25.6109 9.76086 25.345 9.4176 25.3921 9.04173C25.7138 6.52255 27.3886 4.37982 30.3711 2.67254C30.5832 2.55179 30.8413 2.55193 31.0528 2.67254C34.0353 4.37982 35.7103 6.5227 36.0302 9.04188C36.0778 9.41746 35.8116 9.761 35.4357 9.80869C35.4076 9.81232 35.3773 9.8142 35.3492 9.8142Z" fill="#2E2E2E"/>
<path fill-rule="evenodd" clip-rule="evenodd" d="M51.9753 12.0159C51.5965 12.0159 51.2891 11.7089 51.2891 11.3301L51.2892 8.57265C51.2892 8.19373 51.5962 7.88672 51.9749 7.88672C52.3541 7.88672 52.6608 8.19388 52.6608 8.57265V11.33C52.6608 11.7089 52.3536 12.0161 51.9753 12.0159Z" fill="#2E2E2E"/>
<path fill-rule="evenodd" clip-rule="evenodd" d="M55.3519 16.2344C55.0117 16.2344 54.7157 15.9814 54.6714 15.635C54.5044 14.3144 53.5967 13.1364 51.9746 12.1291C50.3533 13.1364 49.4467 14.3146 49.2794 15.635C49.231 16.0109 48.8879 16.2771 48.5119 16.2289C48.1364 16.181 47.8703 15.8378 47.9175 15.4619C48.1551 13.6018 49.4052 12.0115 51.6345 10.7352C51.8465 10.6143 52.1048 10.6143 52.3163 10.7352C54.5463 12.0115 55.7961 13.6018 56.0332 15.4619C56.0805 15.8376 55.8146 16.1812 55.4389 16.2289C55.4092 16.2325 55.3801 16.2345 55.3519 16.2344Z" fill="#2E2E2E"/>
<path fill-rule="evenodd" clip-rule="evenodd" d="M9.44961 12.0159C9.07083 12.0159 8.76367 11.7089 8.76367 11.3301L8.76411 8.57265C8.76411 8.19373 9.07083 7.88672 9.44961 7.88672C9.82838 7.88672 10.1355 8.19388 10.1355 8.57265L10.1358 11.33C10.1358 11.7089 9.82823 12.0161 9.44961 12.0159Z" fill="#2E2E2E"/>
<path fill-rule="evenodd" clip-rule="evenodd" d="M12.8265 16.2344C12.485 16.2344 12.1906 15.9814 12.1462 15.635C11.9795 14.3144 11.0717 13.1364 9.44961 12.1291C7.82783 13.1364 6.92142 14.3146 6.75284 15.635C6.70616 16.0109 6.36131 16.2771 5.98689 16.2289C5.61101 16.181 5.34386 15.8376 5.39242 15.4618C5.62971 13.6017 6.88011 12.0114 9.10939 10.7352C9.32103 10.6143 9.57963 10.6143 9.79113 10.7352C12.0207 12.0115 13.271 13.6018 13.5068 15.4619C13.5558 15.8376 13.2895 16.1812 12.9138 16.2289C12.8838 16.2325 12.8551 16.2345 12.8265 16.2344Z" fill="#2E2E2E"/>
<path fill-rule="evenodd" clip-rule="evenodd" d="M33.777 32.4952C33.3981 32.4952 33.0908 32.1882 33.0908 31.8094V24.8564C33.0908 24.8346 33.0908 24.8129 33.0935 24.7914C33.1442 24.2686 32.6091 23.9642 31.4616 23.4393C31.2149 23.3261 30.9613 23.2103 30.7127 23.0842C30.4657 23.2104 30.2125 23.3261 29.9639 23.4394C28.8182 23.964 28.2833 24.2686 28.3333 24.7914C28.3352 24.8129 28.336 24.8346 28.336 24.8564L28.3363 31.8094C28.3363 32.1882 28.0289 32.4954 27.6501 32.4954C27.2715 32.4952 26.9642 32.1882 26.9642 31.8094L26.9647 24.8862C26.8399 23.3601 28.2547 22.7128 29.3936 22.1918C29.7281 22.0389 30.0739 21.8806 30.3725 21.7098C30.5827 21.5888 30.8428 21.5891 31.0543 21.7097C31.3519 21.8804 31.6973 22.0389 32.0332 22.1918C33.1711 22.7126 34.5855 23.36 34.4626 24.8864L34.4631 31.8094C34.4631 32.1882 34.1553 32.4954 33.777 32.4952Z" fill="#2E2E2E"/>
<path fill-rule="evenodd" clip-rule="evenodd" d="M54.6492 42.1023C54.2704 42.1023 53.9628 41.7953 53.9628 41.4165L53.9629 34.0221C53.9629 34.0042 53.9642 33.9864 53.9655 33.9686C54.0144 33.3366 53.5926 33.0356 52.5437 32.451C52.3552 32.3462 52.1636 32.2396 51.9734 32.1249C51.7855 32.2396 51.5933 32.3462 51.4047 32.451C50.3558 33.0356 49.9342 33.3367 49.9827 33.9686C49.9842 33.9864 49.9856 34.0044 49.9856 34.0222L49.9861 41.4164C49.9861 41.7952 49.6783 42.1025 49.2997 42.1025C48.9212 42.1023 48.6138 41.7953 48.6138 41.4165V34.047C48.5082 32.4954 49.7427 31.8067 50.7372 31.2527C51.0408 31.0837 51.3262 30.9245 51.5819 30.7462C51.8183 30.582 52.1307 30.582 52.3665 30.7462C52.6228 30.9244 52.9081 31.0838 53.211 31.2527C54.206 31.8066 55.4405 32.4953 55.3347 34.0471V41.4164C55.3347 41.7952 55.0274 42.1025 54.6492 42.1023Z" fill="#2E2E2E"/>
<path fill-rule="evenodd" clip-rule="evenodd" d="M12.1245 42.1023C11.7464 42.1023 11.4385 41.7953 11.4385 41.4165L11.4389 34.0221C11.4389 34.0042 11.4385 33.9864 11.4399 33.9686C11.4904 33.3366 11.0684 33.0356 10.018 32.451C9.83133 32.3462 9.63926 32.2396 9.44923 32.1249C9.25962 32.2396 9.0677 32.3462 8.88042 32.451C7.83195 33.0356 7.40853 33.3367 7.45854 33.9686C7.46028 33.9864 7.45999 34.0044 7.45999 34.0222L7.46028 41.4164C7.46028 41.7952 7.15413 42.1025 6.77405 42.1025C6.39528 42.1023 6.08797 41.7953 6.08797 41.4165L6.08841 34.047C5.98244 32.4954 7.21834 31.8067 8.21304 31.2527C8.51484 31.0837 8.80185 30.9245 9.0577 30.7462C9.29369 30.582 9.60636 30.582 9.8422 30.7462C10.0982 30.9244 10.3838 31.0838 10.6867 31.2527C11.6801 31.8066 12.9163 32.4955 12.8105 34.0471L12.8108 41.4164C12.8108 41.7952 12.5032 42.1025 12.1245 42.1023Z" fill="#2E2E2E"/>
<path fill-rule="evenodd" clip-rule="evenodd" d="M40.4002 37.2996H21.0259C20.6472 37.2996 20.3398 36.9926 20.3398 36.6138C20.3403 36.2349 20.6472 35.9279 21.0258 35.9279L40.4002 35.9277C40.779 35.9277 41.0859 36.2349 41.0859 36.6138C41.0865 36.9926 40.7786 37.2997 40.4002 37.2996Z" fill="#2E2E2E"/>
<path fill-rule="evenodd" clip-rule="evenodd" d="M45.1044 42.1004H16.321C15.9422 42.1004 15.6348 41.7934 15.6348 41.4146C15.6349 41.0355 15.9419 40.7287 16.3206 40.7287L45.1044 40.7285C45.4825 40.7285 45.7898 41.0357 45.7898 41.4146C45.7899 41.7932 45.4831 42.1004 45.1044 42.1004Z" fill="#2E2E2E"/>
</svg>
