<svg width="71" height="71" viewBox="0 0 71 71" fill="none" xmlns="http://www.w3.org/2000/svg">
<g clip-path="url(#clip0_1_2)">
<path d="M69.7856 65.8278H67.1934V53.5388H68.747C68.9674 53.5388 69.1787 53.4513 69.3345 53.2955C69.4903 53.1397 69.5779 52.9284 69.5779 52.708C69.5779 52.4877 69.4903 52.2763 69.3345 52.1205C69.1787 51.9647 68.9674 51.8772 68.747 51.8772H67.1934V48.7958C67.1934 48.5755 67.1058 48.3642 66.95 48.2084C66.7942 48.0525 66.5829 47.965 66.3625 47.965H64.0944V46.3034C64.0944 46.083 64.0069 45.8717 63.851 45.7159C63.6952 45.5601 63.4839 45.4725 63.2636 45.4725C63.0432 45.4725 62.8319 45.5601 62.6761 45.7159C62.5203 45.8717 62.4327 46.083 62.4327 46.3034V47.965H50.7L50.2125 43.1878H51.1958C51.4161 43.1878 51.6275 43.1002 51.7833 42.9444C51.9391 42.7886 52.0266 42.5773 52.0266 42.3569C52.0266 42.1366 51.9391 41.9253 51.7833 41.7694C51.6275 41.6136 51.4161 41.5261 51.1958 41.5261H50.0428L49.3011 34.2564H50.1572C50.3776 34.2564 50.5889 34.1688 50.7447 34.013C50.9005 33.8572 50.9881 33.6459 50.9881 33.4255C50.9881 33.2052 50.9005 32.9938 50.7447 32.838C50.5889 32.6822 50.3776 32.5947 50.1572 32.5947H49.1316L48.411 25.5327H49.3264C49.5468 25.5327 49.7581 25.4451 49.9139 25.2893C50.0697 25.1335 50.1572 24.9222 50.1572 24.7018C50.1572 24.4815 50.0697 24.2702 49.9139 24.1143C49.7581 23.9585 49.5468 23.871 49.3264 23.871H48.2414L47.5418 17.0167H48.4956C48.7159 17.0167 48.9273 16.9291 49.0831 16.7733C49.2389 16.6175 49.3264 16.4062 49.3264 16.1858C49.3264 15.9655 49.2389 15.7542 49.0831 15.5984C48.9273 15.4425 48.7159 15.355 48.4956 15.355H47.3725L46.7153 8.91609H47.6648C47.8851 8.91609 48.0964 8.82856 48.2522 8.67275C48.4081 8.51693 48.4956 8.30561 48.4956 8.08526C48.4956 7.86491 48.4081 7.65359 48.2522 7.49778C48.0964 7.34196 47.8851 7.25443 47.6648 7.25443H46.5224V4.13883C46.5224 3.91848 46.4348 3.70715 46.279 3.55134C46.1232 3.39553 45.9119 3.308 45.6915 3.308C45.4712 3.308 45.2599 3.39553 45.1041 3.55134C44.9482 3.70715 44.8607 3.91848 44.8607 4.13883V7.25443H41.6932V4.13883C41.6932 3.91848 41.6056 3.70715 41.4498 3.55134C41.294 3.39553 41.0827 3.308 40.8624 3.308C40.642 3.308 40.4307 3.39553 40.2749 3.55134C40.1191 3.70715 40.0315 3.91848 40.0315 4.13883V7.25443H36.6563V4.13883C36.6563 3.91848 36.5688 3.70715 36.4129 3.55134C36.2571 3.39553 36.0458 3.308 35.8255 3.308C35.6051 3.308 35.3938 3.39553 35.238 3.55134C35.0822 3.70715 34.9946 3.91848 34.9946 4.13883V7.25443H31.6194V4.13883C31.6194 3.91848 31.5319 3.70715 31.376 3.55134C31.2202 3.39553 31.0089 3.308 30.7886 3.308C30.5682 3.308 30.3569 3.39553 30.2011 3.55134C30.0453 3.70715 29.9577 3.91848 29.9577 4.13883V7.25443H26.5825V4.13883C26.5825 3.91848 26.495 3.70715 26.3392 3.55134C26.1833 3.39553 25.972 3.308 25.7517 3.308C25.5313 3.308 25.32 3.39553 25.1642 3.55134C25.0084 3.70715 24.9208 3.91848 24.9208 4.13883V7.25443H23.7784C23.5581 7.25443 23.3468 7.34196 23.191 7.49778C23.0352 7.65359 22.9476 7.86491 22.9476 8.08526C22.9476 8.30561 23.0352 8.51693 23.191 8.67275C23.3468 8.82856 23.5581 8.91609 23.7784 8.91609H24.7279L24.0707 15.355H22.9476C22.7273 15.355 22.5159 15.4425 22.3601 15.5984C22.2043 15.7542 22.1168 15.9655 22.1168 16.1858C22.1168 16.4062 22.2043 16.6175 22.3601 16.7733C22.5159 16.9291 22.7273 17.0167 22.9476 17.0167H23.9014L23.2019 23.871H22.1168C21.8964 23.871 21.6851 23.9585 21.5293 24.1143C21.3735 24.2702 21.286 24.4815 21.286 24.7018C21.286 24.9222 21.3735 25.1335 21.5293 25.2893C21.6851 25.4451 21.8964 25.5327 22.1168 25.5327H23.0322L22.3116 32.5947H21.286C21.0656 32.5947 20.8543 32.6822 20.6985 32.838C20.5427 32.9938 20.4551 33.2052 20.4551 33.4255C20.4551 33.6459 20.5427 33.8572 20.6985 34.013C20.8543 34.1688 21.0656 34.2564 21.286 34.2564H22.1421L21.4004 41.5261H20.2474C20.0271 41.5261 19.8158 41.6136 19.6599 41.7694C19.5041 41.9253 19.4166 42.1366 19.4166 42.3569C19.4166 42.5773 19.5041 42.7886 19.6599 42.9444C19.8158 43.1002 20.0271 43.1878 20.2474 43.1878H21.2307L20.7432 47.965H9.01048V46.3034C9.01048 46.083 8.92294 45.8717 8.76713 45.7159C8.61132 45.5601 8.4 45.4725 8.17965 45.4725C7.9593 45.4725 7.74798 45.5601 7.59216 45.7159C7.43635 45.8717 7.34882 46.083 7.34882 46.3034V47.965H5.08066C4.86031 47.965 4.64899 48.0525 4.49318 48.2084C4.33737 48.3642 4.24983 48.5755 4.24983 48.7958V51.8772H2.69618C2.47583 51.8772 2.26451 51.9647 2.1087 52.1205C1.95289 52.2763 1.86536 52.4877 1.86536 52.708C1.86536 52.9284 1.95289 53.1397 2.1087 53.2955C2.26451 53.4513 2.47583 53.5388 2.69618 53.5388H4.24983V65.8278H1.65765C1.4373 65.8278 1.22597 65.9154 1.07016 66.0712C0.914353 66.227 0.82682 66.4383 0.82682 66.6587C0.82682 66.879 0.914353 67.0903 1.07016 67.2461C1.22597 67.4019 1.4373 67.4895 1.65765 67.4895H69.7856C70.0059 67.4895 70.2172 67.4019 70.373 67.2461C70.5289 67.0903 70.6164 66.879 70.6164 66.6587C70.6164 66.4383 70.5289 66.227 70.373 66.0712C70.2172 65.9154 70.0059 65.8278 69.7856 65.8278ZM65.5317 51.8772H46.6867V49.6267H65.5317V51.8772ZM37.7987 59.3889H33.6445V53.7808C33.6445 53.2299 33.8634 52.7016 34.2529 52.3121C34.6424 51.9226 35.1707 51.7037 35.7216 51.7037C36.2725 51.7037 36.8008 51.9226 37.1903 52.3121C37.5798 52.7016 37.7987 53.2299 37.7987 53.7808V59.3889ZM32.8137 61.0506H45.025V62.7122H26.4182V61.0506H32.8137ZM26.4182 64.3739H45.025V65.8278H26.4182V64.3739ZM26.3974 8.91609H45.0445L45.7015 15.355H40.4989V12.8625C40.4989 12.6422 40.4113 12.4308 40.2555 12.275C40.0997 12.1192 39.8884 12.0317 39.668 12.0317C39.4477 12.0317 39.2364 12.1192 39.0806 12.275C38.9247 12.4308 38.8372 12.6422 38.8372 12.8625V15.355H31.9829V12.8625C31.9829 12.6422 31.8953 12.4308 31.7395 12.275C31.5837 12.1192 31.3724 12.0317 31.152 12.0317C30.9317 12.0317 30.7204 12.1192 30.5646 12.275C30.4088 12.4308 30.3212 12.6422 30.3212 12.8625V15.355H25.7411L26.3974 8.91609ZM25.571 17.0167H45.871L46.5703 23.871H40.4989V21.3785C40.4989 21.1582 40.4113 20.9468 40.2555 20.791C40.0997 20.6352 39.8884 20.5477 39.668 20.5477C39.4477 20.5477 39.2364 20.6352 39.0806 20.791C38.9247 20.9468 38.8372 21.1582 38.8372 21.3785V23.871H31.9829V21.3785C31.9829 21.1582 31.8953 20.9468 31.7395 20.791C31.5837 20.6352 31.3724 20.5477 31.152 20.5477C30.9317 20.5477 30.7204 20.6352 30.5646 20.791C30.4088 20.9468 30.3212 21.1582 30.3212 21.3785V23.871H24.8722L25.571 17.0167ZM24.7019 25.5327H46.7396L47.4604 32.5947H40.4989V30.1022C40.4989 29.8819 40.4113 29.6705 40.2555 29.5147C40.0997 29.3589 39.8884 29.2714 39.668 29.2714C39.4477 29.2714 39.2364 29.3589 39.0806 29.5147C38.9247 29.6705 38.8372 29.8819 38.8372 30.1022V32.5947H31.9829V30.1022C31.9829 29.8819 31.8953 29.6705 31.7395 29.5147C31.5837 29.3589 31.3724 29.2714 31.152 29.2714C30.9317 29.2714 30.7204 29.3589 30.5646 29.5147C30.4088 29.6705 30.3212 29.8819 30.3212 30.1022V32.5947H23.9818L24.7019 25.5327ZM23.8119 34.2564H47.6307L48.3726 41.5261H40.4989V39.0336C40.4989 38.8133 40.4113 38.6019 40.2555 38.4461C40.0997 38.2903 39.8884 38.2028 39.668 38.2028C39.4477 38.2028 39.2364 38.2903 39.0806 38.4461C38.9247 38.6019 38.8372 38.8133 38.8372 39.0336V41.5261H31.9829V39.0336C31.9829 38.8133 31.8953 38.6019 31.7395 38.4461C31.5837 38.2903 31.3724 38.2028 31.152 38.2028C30.9317 38.2028 30.7204 38.2903 30.5646 38.4461C30.4088 38.6019 30.3212 38.8133 30.3212 39.0336V41.5261H23.0706L23.8119 34.2564ZM22.9005 43.1878H48.5421L49.0296 47.965H46.6867V46.3034C46.6867 46.083 46.5991 45.8717 46.4433 45.7159C46.2875 45.5601 46.0762 45.4725 45.8558 45.4725C45.6355 45.4725 45.4242 45.5601 45.2684 45.7159C45.1125 45.8717 45.025 46.083 45.025 46.3034V59.3889H39.4603V53.7808C39.4603 52.7892 39.0664 51.8383 38.3653 51.1371C37.6641 50.436 36.7132 50.0421 35.7216 50.0421C34.73 50.0421 33.7791 50.436 33.0779 51.1371C32.3768 51.8383 31.9829 52.7892 31.9829 53.7808V59.3889H26.4182V46.3034C26.4182 46.083 26.3307 45.8717 26.1749 45.7159C26.019 45.5601 25.8077 45.4725 25.5874 45.4725C25.367 45.4725 25.1557 45.5601 24.9999 45.7159C24.8441 45.8717 24.7565 46.083 24.7565 46.3034V47.965H22.4136L22.9005 43.1878ZM5.91003 49.6267H24.7551V51.8772H5.91149L5.91003 49.6267ZM21.1709 65.8278V56.481C21.1709 56.2607 21.0834 56.0493 20.9276 55.8935C20.7717 55.7377 20.5604 55.6502 20.3401 55.6502C20.1197 55.6502 19.9084 55.7377 19.7526 55.8935C19.5968 56.0493 19.5092 56.2607 19.5092 56.481V65.8278H11.396V56.481C11.396 56.2607 11.3085 56.0493 11.1526 55.8935C10.9968 55.7377 10.7855 55.6502 10.5652 55.6502C10.3448 55.6502 10.1335 55.7377 9.97768 55.8935C9.82187 56.0493 9.73434 56.2607 9.73434 56.481V65.8278H5.91253V53.5388H24.7576V65.8278H21.1709ZM61.7074 65.8278V56.481C61.7074 56.2607 61.6199 56.0493 61.4641 55.8935C61.3083 55.7377 61.0969 55.6502 60.8766 55.6502C60.6562 55.6502 60.4449 55.7377 60.2891 55.8935C60.1333 56.0493 60.0458 56.2607 60.0458 56.481V65.8278H51.9325V56.481C51.9325 56.2607 51.845 56.0493 51.6892 55.8935C51.5334 55.7377 51.322 55.6502 51.1017 55.6502C50.8813 55.6502 50.67 55.7377 50.5142 55.8935C50.3584 56.0493 50.2709 56.2607 50.2709 56.481V65.8278H46.6867V53.5388H65.5317V65.8278H61.7074Z" fill="#2E2E2E"/>
<path d="M32.2575 43.1703H38.0226C38.1682 43.1703 38.3079 43.1124 38.4108 43.0095C38.5138 42.9065 38.5716 42.7668 38.5716 42.6212C38.5716 42.4756 38.5138 42.336 38.4108 42.233C38.3079 42.13 38.1682 42.0722 38.0226 42.0722H32.2575C32.1119 42.0722 31.9722 42.13 31.8692 42.233C31.7663 42.336 31.7084 42.4756 31.7084 42.6212C31.7084 42.7668 31.7663 42.9065 31.8692 43.0095C31.9722 43.1124 32.1119 43.1703 32.2575 43.1703Z" fill="#2E2E2E"/>
</g>
<defs>
<clipPath id="clip0_1_2">
<rect width="70.2793" height="70.2793" fill="white"/>
</clipPath>
</defs>
</svg>
