<svg width="65" height="65" viewBox="0 0 65 65" fill="none" xmlns="http://www.w3.org/2000/svg">
<mask id="mask0_438_3144" style="mask-type:luminance" maskUnits="userSpaceOnUse" x="0" y="-1" width="65" height="66">
<path d="M0 0H64.4915V64.4915H0V0Z" fill="white"/>
</mask>
<g mask="url(#mask0_438_3144)">
<path d="M19.2246 15.3939V13.6996C19.2246 9.14778 22.9146 5.45766 27.4667 5.45766H37.0278C41.5799 5.45766 45.2697 9.14778 45.2697 13.6996V15.3939" stroke="#2E2E2E" stroke-width="1.65365" stroke-miterlimit="10" stroke-linecap="round" stroke-linejoin="round"/>
<path d="M10.7891 27.654V36.7201" stroke="#2E2E2E" stroke-width="1.65365" stroke-miterlimit="10" stroke-linecap="round" stroke-linejoin="round"/>
<path d="M19.2227 36.7201V27.654" stroke="#2E2E2E" stroke-width="1.65365" stroke-miterlimit="10" stroke-linecap="round" stroke-linejoin="round"/>
<path d="M45.2695 27.654V36.7201" stroke="#2E2E2E" stroke-width="1.65365" stroke-miterlimit="10" stroke-linecap="round" stroke-linejoin="round"/>
<path d="M53.7031 36.7201V27.654" stroke="#2E2E2E" stroke-width="1.65365" stroke-miterlimit="10" stroke-linecap="round" stroke-linejoin="round"/>
<path d="M45.2697 40.4207V63.5482H19.2246V40.4207" stroke="#2E2E2E" stroke-width="1.65365" stroke-miterlimit="10" stroke-linecap="round" stroke-linejoin="round"/>
<path d="M19.2233 40.4207V63.5482H13.3083C11.9169 63.5482 10.7891 62.4203 10.7891 61.029V40.4207" stroke="#2E2E2E" stroke-width="1.65365" stroke-miterlimit="10" stroke-linecap="round" stroke-linejoin="round"/>
<path d="M10.7891 48.8724H19.2233" stroke="#2E2E2E" stroke-width="1.65365" stroke-miterlimit="10" stroke-linecap="round" stroke-linejoin="round"/>
<path d="M10.7891 56.4896H19.2233" stroke="#2E2E2E" stroke-width="1.65365" stroke-miterlimit="10" stroke-linecap="round" stroke-linejoin="round"/>
<path d="M53.7038 46.5713V61.029C53.7038 62.4203 52.576 63.5482 51.1846 63.5482H45.2695V40.4207" stroke="#2E2E2E" stroke-width="1.65365" stroke-miterlimit="10" stroke-linecap="round" stroke-linejoin="round"/>
<path d="M53.7031 40.419V43.0931" stroke="#2E2E2E" stroke-width="1.65365" stroke-miterlimit="10" stroke-linecap="round" stroke-linejoin="round"/>
<path d="M45.2695 48.8724H53.7038" stroke="#2E2E2E" stroke-width="1.65365" stroke-miterlimit="10" stroke-linecap="round" stroke-linejoin="round"/>
<path d="M45.2695 56.4896H53.7038" stroke="#2E2E2E" stroke-width="1.65365" stroke-miterlimit="10" stroke-linecap="round" stroke-linejoin="round"/>
<path d="M29.7422 36.7201V34.142C29.7422 32.7585 30.8637 31.6369 32.2474 31.6369C33.631 31.6369 34.7525 32.7585 34.7525 34.142V36.7201" stroke="#2E2E2E" stroke-width="1.65365" stroke-miterlimit="10" stroke-linecap="round" stroke-linejoin="round"/>
<path d="M23.5247 40.4193H8.79308C7.77155 40.4193 6.94336 39.5911 6.94336 38.5696C6.94336 37.548 7.77155 36.7198 8.79308 36.7198H55.6995C56.721 36.7198 57.5491 37.548 57.5491 38.5696C57.5491 39.5911 56.721 40.4193 55.6995 40.4193H27.589" stroke="#2E2E2E" stroke-width="1.65365" stroke-miterlimit="10" stroke-linecap="round" stroke-linejoin="round"/>
<path d="M55.6993 27.6537H8.79296C7.77142 27.6537 6.94336 26.8255 6.94336 25.8039C6.94336 24.7824 7.77142 23.9542 8.79296 23.9542H55.6993C56.7209 23.9542 57.5491 24.7824 57.5491 25.8039C57.5491 26.8255 56.7209 27.6537 55.6993 27.6537Z" stroke="#2E2E2E" stroke-width="1.65365" stroke-miterlimit="10" stroke-linecap="round" stroke-linejoin="round"/>
<path d="M40.4541 15.3937H48.5614C49.5831 15.3937 50.4113 16.2219 50.4113 17.2434C50.4113 18.2649 49.5831 19.0931 48.5614 19.0931H16.6525C15.6309 19.0931 14.8027 18.2649 14.8027 17.2434C14.8027 16.2219 15.6309 15.3937 16.6525 15.3937H36.5091" stroke="#2E2E2E" stroke-width="1.65365" stroke-miterlimit="10" stroke-linecap="round" stroke-linejoin="round"/>
<path d="M32.2461 5.45639V0.944502" stroke="#2E2E2E" stroke-width="1.65365" stroke-miterlimit="10" stroke-linecap="round" stroke-linejoin="round"/>
<path d="M39.4023 19.0925V36.7201" stroke="#2E2E2E" stroke-width="1.65365" stroke-miterlimit="10" stroke-linecap="round" stroke-linejoin="round"/>
<path d="M25.0898 19.0925V36.7201" stroke="#2E2E2E" stroke-width="1.65365" stroke-miterlimit="10" stroke-linecap="round" stroke-linejoin="round"/>
<path d="M40.381 51.9846C40.381 56.4769 36.7394 60.1185 32.2471 60.1185C27.7549 60.1185 24.1133 56.4769 24.1133 51.9846C24.1133 47.4924 27.7549 43.8508 32.2471 43.8508C36.7394 43.8508 40.381 47.4924 40.381 51.9846Z" stroke="#2E2E2E" stroke-width="1.65365" stroke-miterlimit="10" stroke-linecap="round" stroke-linejoin="round"/>
<path d="M36.9045 51.9846C36.9045 54.5568 34.8193 56.6419 32.2471 56.6419C29.6749 56.6419 27.5898 54.5568 27.5898 51.9846C27.5898 49.4125 29.6749 47.3272 32.2471 47.3272C34.8193 47.3272 36.9045 49.4125 36.9045 51.9846Z" stroke="#2E2E2E" stroke-width="1.65365" stroke-miterlimit="10" stroke-linecap="round" stroke-linejoin="round"/>
<path d="M32.2459 50.2587V51.9837H31.082" stroke="#2E2E2E" stroke-width="1.65365" stroke-miterlimit="10" stroke-linecap="round" stroke-linejoin="round"/>
<path d="M45.2695 19.0943V23.9564" stroke="#2E2E2E" stroke-width="1.65365" stroke-miterlimit="10" stroke-linecap="round" stroke-linejoin="round"/>
<path d="M19.2227 19.0943V23.9564" stroke="#2E2E2E" stroke-width="1.65365" stroke-miterlimit="10" stroke-linecap="round" stroke-linejoin="round"/>
</g>
</svg>
