<svg width="57" height="65" viewBox="0 0 57 65" fill="none" xmlns="http://www.w3.org/2000/svg">
<path d="M53.508 56.6284H53.4866V26.3533C54.3504 26.0511 55.0793 25.4528 55.5442 24.6645C56.009 23.8762 56.1798 22.9488 56.0262 22.0466C55.8725 21.1445 55.4045 20.3258 54.7049 19.7358C54.0053 19.1458 53.1195 18.8225 52.2043 18.8233H50.342V17.6659C50.3405 16.379 49.8287 15.1453 48.9188 14.2354C48.0088 13.3254 46.7751 12.8136 45.4882 12.8121H44.815V11.6554C44.8132 10.3876 44.3158 9.17083 43.429 8.26483C42.5422 7.35883 41.3363 6.83545 40.0689 6.80647L38.4756 3.66604C37.9194 2.5609 37.0665 1.63251 36.0123 0.984982C34.9581 0.337455 33.7443 -0.00360987 32.5072 2.88131e-05H25.2048C23.9676 -0.00360987 22.7539 0.337455 21.6997 0.984982C20.6455 1.63251 19.7925 2.5609 19.2364 3.66604L17.6431 6.80647C16.3756 6.83545 15.1698 7.35883 14.283 8.26483C13.3962 9.17083 12.8988 10.3876 12.8969 11.6554V12.8121H12.2237C10.9369 12.8136 9.70315 13.3254 8.79321 14.2354C7.88327 15.1453 7.37143 16.379 7.36997 17.6659V18.8233H3.87639C2.84831 18.8233 1.86233 19.2317 1.13537 19.9586C0.408405 20.6856 0 21.6716 0 22.6997C0 23.7277 0.408405 24.7137 1.13537 25.4407C1.86233 26.1677 2.84831 26.5761 3.87639 26.5761H4.22126V56.6284H4.19988C3.29086 56.6295 2.41938 56.9911 1.7766 57.6339C1.13383 58.2766 0.772234 59.1481 0.771139 60.0572V63.2845C0.771139 63.6046 0.898312 63.9116 1.12468 64.138C1.35105 64.3644 1.65807 64.4915 1.9782 64.4915H23.068C23.3881 64.4915 23.6951 64.3644 23.9215 64.138C24.1479 63.9116 24.275 63.6046 24.275 63.2845V60.0572C24.2739 59.1481 23.9123 58.2766 23.2696 57.6339C22.6268 56.9911 21.7553 56.6295 20.8463 56.6284H20.8249V40.5752C20.831 39.2269 21.2689 37.916 22.0743 36.8347C22.8798 35.7534 24.0105 34.9586 25.3007 34.5668C25.36 34.548 25.4178 34.525 25.4738 34.4978L28.8543 32.8928L32.234 34.5006C32.29 34.5277 32.3479 34.5508 32.4072 34.5696C33.6973 34.9613 34.828 35.7562 35.6335 36.8374C36.439 37.9187 36.8768 39.2296 36.8829 40.578V56.6284H36.8622C35.9532 56.6295 35.0817 56.9911 34.439 57.6339C33.7962 58.2766 33.4346 59.1481 33.4335 60.0572V63.2845C33.4335 63.6046 33.5607 63.9116 33.787 64.138C34.0134 64.3644 34.3204 64.4915 34.6406 64.4915H55.7296C56.0498 64.4915 56.3568 64.3644 56.5832 64.138C56.8095 63.9116 56.9367 63.6046 56.9367 63.2845V60.0572C56.9356 59.1481 56.574 58.2766 55.9312 57.6339C55.2885 56.9911 54.417 56.6295 53.508 56.6284ZM39.2991 42.1354H51.0724V45.191H39.2977L39.2991 42.1354ZM21.3891 4.75723C21.7445 4.05045 22.2897 3.45665 22.9637 3.04242C23.6377 2.62819 24.4137 2.40992 25.2048 2.41208H32.5037C33.2948 2.40984 34.0709 2.62808 34.7449 3.04231C35.4189 3.45655 35.9641 4.0504 36.3194 4.75723L37.354 6.80026H20.3524L21.3891 4.75723ZM15.311 11.6547C15.312 11.0082 15.5691 10.3884 16.0261 9.93112C16.4831 9.47384 17.1028 9.21635 17.7493 9.21507H39.9592C40.6062 9.21581 41.2265 9.47314 41.684 9.93064C42.1415 10.3881 42.3988 11.0084 42.3996 11.6554V12.8121H15.311V11.6547ZM9.78409 17.6652C9.78482 17.0184 10.0421 16.3983 10.4994 15.9409C10.9568 15.4835 11.5769 15.2263 12.2237 15.2255H45.4848C46.1316 15.2263 46.7517 15.4835 47.2091 15.9409C47.6664 16.3983 47.9237 17.0184 47.9244 17.6652V18.8233H9.78133L9.78409 17.6652ZM2.41412 22.7004C2.41449 22.3126 2.56866 21.9409 2.84281 21.6668C3.11696 21.3926 3.48868 21.2385 3.87639 21.2381H52.2043C52.5855 21.2353 52.9526 21.3818 53.2271 21.6462C53.5016 21.9107 53.6617 22.2721 53.6731 22.6531C53.6846 23.034 53.5465 23.4044 53.2883 23.6848C53.0302 23.9653 52.6726 24.1336 52.2919 24.1537H52.2795H5.42901C5.39453 24.1537 5.36004 24.1612 5.329 24.164H3.87639C3.48833 24.1636 3.11629 24.0092 2.84208 23.7346C2.56787 23.46 2.41394 23.0884 2.41412 22.7004ZM18.4108 45.191H6.63607V42.1354H18.4108V45.191ZM21.8595 60.0572V62.0774H3.18595V60.0572C3.18631 59.7882 3.29333 59.5303 3.48353 59.3401C3.67373 59.1499 3.93159 59.0429 4.20057 59.0425H20.8463C21.1153 59.0429 21.3731 59.1499 21.5633 59.3401C21.7535 59.5303 21.8605 59.7882 21.8609 60.0572H21.8595ZM6.63607 56.6284V47.6051H18.4108V56.6284H6.63607ZM33.1914 32.2803L29.373 30.4635C29.2111 30.3873 29.0345 30.3477 28.8556 30.3477C28.6768 30.3477 28.5001 30.3873 28.3383 30.4635L24.5199 32.2803C22.8948 32.7947 21.4556 33.7729 20.3791 35.0946C19.3027 36.4162 18.636 38.0237 18.4611 39.7192H6.63607V26.5761H51.0724V39.7213H39.2495C39.0747 38.0258 38.4082 36.4184 37.3318 35.0967C36.2555 33.7751 34.8164 32.7968 33.1914 32.2823V32.2803ZM39.2977 47.603H51.0724V56.6284H39.2977V47.603ZM54.5226 62.0754H35.8476V60.0551C35.848 59.7861 35.955 59.5282 36.1452 59.338C36.3354 59.1478 36.5933 59.0408 36.8622 59.0405H53.508C53.7769 59.0408 54.0348 59.1478 54.225 59.338C54.4152 59.5282 54.5222 59.7861 54.5226 60.0551V62.0754Z" fill="#2E2E2E"/>
<path d="M14.1007 28.9238H11.7183C11.0127 28.9257 10.3367 29.207 9.83815 29.7063C9.33964 30.2056 9.05932 30.8821 9.05859 31.5876V32.1132C9.05932 32.8194 9.34011 33.4964 9.83937 33.9958C10.3386 34.4952 11.0156 34.7761 11.7217 34.777H14.1007C14.807 34.7763 15.4842 34.4954 15.9837 33.9961C16.4832 33.4967 16.7642 32.8196 16.7652 32.1132V31.5876C16.7642 30.8813 16.4832 30.2042 15.9837 29.7048C15.4842 29.2054 14.807 28.9246 14.1007 28.9238ZM14.351 32.1132C14.3509 32.1795 14.3244 32.243 14.2775 32.2898C14.2305 32.3366 14.1669 32.3629 14.1007 32.3629H11.7183C11.6522 32.3627 11.5888 32.3363 11.5422 32.2895C11.4955 32.2427 11.4693 32.1793 11.4693 32.1132V31.5876C11.4693 31.5215 11.4955 31.4581 11.5422 31.4113C11.5888 31.3645 11.6522 31.3381 11.7183 31.3379H14.1007C14.1669 31.3379 14.2305 31.3642 14.2775 31.411C14.3244 31.4578 14.3509 31.5214 14.351 31.5876V32.1132Z" fill="#2E2E2E"/>
<path d="M43.6079 34.777H45.9903C46.6964 34.7761 47.3733 34.4952 47.8726 33.9958C48.3719 33.4964 48.6526 32.8194 48.6534 32.1132V31.5876C48.6526 30.8815 48.3719 30.2045 47.8726 29.7051C47.3733 29.2057 46.6964 28.9247 45.9903 28.9238H43.6079C42.9015 28.9246 42.2243 29.2054 41.7248 29.7048C41.2253 30.2042 40.9443 30.8813 40.9434 31.5876V32.1132C40.9443 32.8196 41.2253 33.4967 41.7248 33.9961C42.2243 34.4954 42.9015 34.7763 43.6079 34.777ZM43.3575 31.5876C43.3575 31.5548 43.364 31.5223 43.3766 31.4919C43.3891 31.4616 43.4076 31.434 43.4309 31.4108C43.4541 31.3876 43.4817 31.3693 43.5121 31.3568C43.5425 31.3442 43.575 31.3379 43.6079 31.3379H45.9903C46.0564 31.3381 46.1197 31.3645 46.1664 31.4113C46.213 31.4581 46.2393 31.5215 46.2393 31.5876V32.1132C46.2393 32.1793 46.213 32.2427 46.1664 32.2895C46.1197 32.3363 46.0564 32.3627 45.9903 32.3629H43.6079C43.575 32.363 43.5425 32.3566 43.5121 32.3441C43.4817 32.3316 43.4541 32.3132 43.4309 32.29C43.4076 32.2668 43.3891 32.2393 43.3766 32.2089C43.364 32.1786 43.3575 32.1461 43.3575 32.1132V31.5876Z" fill="#2E2E2E"/>
</svg>
