<svg width="71" height="71" viewBox="0 0 71 71" fill="none" xmlns="http://www.w3.org/2000/svg">
<path d="M3.30664 66.1465H66.1446V67.8001H3.30664V66.1465Z" fill="#2E2E2E"/>
<path d="M47.418 67.7996H27.3819C27.1371 67.7996 26.9024 67.7036 26.7293 67.5328C26.5562 67.362 26.459 67.1303 26.459 66.8887V28.631H28.3048V65.9778H46.6815C50.5687 48.7719 48.4682 34.6858 40.5904 25.2042C37.3193 21.2516 33.0949 18.1731 28.3048 16.251V24.9874H26.459V14.9676C26.459 14.8273 26.4918 14.6889 26.5549 14.5632C26.618 14.4374 26.7097 14.3278 26.8228 14.2428C26.9359 14.1578 27.0673 14.0998 27.2069 14.0732C27.3464 14.0466 27.4904 14.0521 27.6274 14.0895C27.9384 14.1742 58.6367 23.0654 48.3169 67.0937C48.2699 67.2943 48.1555 67.4733 47.9923 67.6015C47.829 67.7297 47.6266 67.7995 47.418 67.7996Z" fill="#2E2E2E"/>
<path d="M43.4283 63.6656H32.2995C32.0662 63.6656 31.8425 63.569 31.6776 63.397C31.5126 63.225 31.4199 62.9918 31.4199 62.7486V22.4147C31.42 22.2477 31.4638 22.0839 31.5466 21.9409C31.6295 21.798 31.7482 21.6813 31.8899 21.6035C32.0317 21.5258 32.1912 21.4898 32.3511 21.4996C32.511 21.5094 32.6653 21.5645 32.7974 21.6591C39.0611 26.1396 48.8836 37.4583 44.2929 62.9182C44.255 63.1284 44.1478 63.3181 43.9899 63.4545C43.8321 63.591 43.6334 63.6656 43.4283 63.6656ZM33.1791 61.8316H42.6947C46.4717 39.7316 38.9581 29.0319 33.1791 24.234V61.8316Z" fill="#2E2E2E"/>
<path d="M26.459 4.96094H28.1126V14.8827H26.459V4.96094Z" fill="#2E2E2E"/>
<path d="M32.2461 28.9395H39.6874V31.4199H32.2461V28.9395Z" fill="#2E2E2E"/>
<path d="M32.2461 37.207H42.9947V38.8607H32.2461V37.207Z" fill="#2E2E2E"/>
<path d="M32.2461 45.4766H44.6483V47.1302H32.2461V45.4766Z" fill="#2E2E2E"/>
<path d="M32.2461 53.7441H44.6483V55.3978H32.2461V53.7441Z" fill="#2E2E2E"/>
<path d="M28.0374 28.9394H19.9196C19.6803 28.9394 19.4509 28.8523 19.2818 28.6972C19.1126 28.5422 19.0176 28.3319 19.0176 28.1126V24.8053C19.0176 24.586 19.1126 24.3757 19.2818 24.2207C19.4509 24.0656 19.6803 23.9785 19.9196 23.9785H28.0374C28.2766 23.9785 28.506 24.0656 28.6752 24.2207C28.8443 24.3757 28.9394 24.586 28.9394 24.8053V28.1126C28.9394 28.3319 28.8443 28.5422 28.6752 28.6972C28.506 28.8523 28.2766 28.9394 28.0374 28.9394ZM20.8215 27.2858H27.1354V25.6321H20.8215V27.2858Z" fill="#2E2E2E"/>
<path d="M27.2845 67.8004H23.9772C23.7579 67.8004 23.5476 67.7031 23.3926 67.5301C23.2375 67.357 23.1504 67.1222 23.1504 66.8774V28.1133H24.804V65.9545H26.4576V28.1133H28.1113V66.8774C28.1113 67.1222 28.0242 67.357 27.8691 67.5301C27.7141 67.7031 27.5037 67.8004 27.2845 67.8004Z" fill="#2E2E2E"/>
<path d="M28.1113 24.8053H26.4576V20.9533H24.804V24.8053H23.1504V19.9854C23.1504 19.7287 23.2375 19.4826 23.3926 19.3011C23.5476 19.1195 23.7579 19.0176 23.9772 19.0176H27.2845C27.5037 19.0176 27.7141 19.1195 27.8691 19.3011C28.0242 19.4826 28.1113 19.7287 28.1113 19.9854V24.8053Z" fill="#2E2E2E"/>
<path d="M63.3645 24.8052H50.7368C49.7799 24.8052 48.8623 24.407 48.1856 23.6981C47.509 22.9893 47.1289 22.0279 47.1289 21.0255C47.1289 20.023 47.509 19.0616 48.1856 18.3528C48.8623 17.644 49.7799 17.2458 50.7368 17.2458H51.6388C51.6388 15.7421 52.209 14.3 53.2239 13.2368C54.2388 12.1735 55.6154 11.5762 57.0507 11.5762C58.486 11.5762 59.8625 12.1735 60.8775 13.2368C61.8924 14.3 62.4626 15.7421 62.4626 17.2458H63.3645C64.3214 17.2458 65.2391 17.644 65.9157 18.3528C66.5923 19.0616 66.9725 20.023 66.9725 21.0255C66.9725 22.0279 66.5923 22.9893 65.9157 23.6981C65.2391 24.407 64.3214 24.8052 63.3645 24.8052ZM50.7368 19.1356C50.2584 19.1356 49.7995 19.3347 49.4612 19.6891C49.1229 20.0436 48.9329 20.5243 48.9329 21.0255C48.9329 21.5267 49.1229 22.0074 49.4612 22.3618C49.7995 22.7162 50.2584 22.9153 50.7368 22.9153H63.3645C63.843 22.9153 64.3018 22.7162 64.6401 22.3618C64.9784 22.0074 65.1685 21.5267 65.1685 21.0255C65.1685 20.5243 64.9784 20.0436 64.6401 19.6891C64.3018 19.3347 63.843 19.1356 63.3645 19.1356H61.4704C61.3366 19.1356 61.2045 19.1045 61.0837 19.0445C60.9628 18.9844 60.8562 18.8969 60.7716 18.7884C60.687 18.6798 60.6265 18.553 60.5944 18.4169C60.5624 18.2808 60.5597 18.139 60.5864 18.0017C60.6936 17.4525 60.6828 16.8852 60.5548 16.3409C60.4268 15.7966 60.1849 15.289 59.8465 14.8547C59.5082 14.4205 59.0818 14.0705 58.5984 13.8302C58.115 13.5899 57.5867 13.4652 57.0516 13.4652C56.5165 13.4652 55.9881 13.5899 55.5047 13.8302C55.0213 14.0705 54.595 14.4205 54.2566 14.8547C53.9183 15.289 53.6763 15.7966 53.5484 16.3409C53.4204 16.8852 53.4096 17.4525 53.5167 18.0017C53.5435 18.139 53.5407 18.2808 53.5087 18.4169C53.4767 18.553 53.4162 18.6798 53.3316 18.7884C53.247 18.8969 53.1404 18.9844 53.0195 19.0445C52.8987 19.1045 52.7666 19.1356 52.6328 19.1356H50.7368Z" fill="#2E2E2E"/>
<path d="M19.3926 16.5376H6.23872C5.24197 16.5376 4.28604 16.1394 3.58123 15.4306C2.87643 14.7217 2.48047 13.7603 2.48047 12.7579C2.48047 11.7555 2.87643 10.7941 3.58123 10.0852C4.28604 9.3764 5.24197 8.97818 6.23872 8.97818H7.17828C7.17828 7.47451 7.77221 6.03243 8.82943 4.96918C9.88664 3.90592 11.3205 3.30859 12.8157 3.30859C14.3108 3.30859 15.7447 3.90592 16.8019 4.96918C17.8591 6.03243 18.453 7.47451 18.453 8.97818H19.3926C20.3893 8.97818 21.3453 9.3764 22.0501 10.0852C22.7549 10.7941 23.1508 11.7555 23.1508 12.7579C23.1508 13.7603 22.7549 14.7217 22.0501 15.4306C21.3453 16.1394 20.3893 16.5376 19.3926 16.5376ZM6.23872 10.868C5.74034 10.868 5.26238 11.0672 4.90998 11.4216C4.55757 11.776 4.35959 12.2567 4.35959 12.7579C4.35959 13.2591 4.55757 13.7398 4.90998 14.0942C5.26238 14.4487 5.74034 14.6478 6.23872 14.6478H19.3926C19.891 14.6478 20.3689 14.4487 20.7213 14.0942C21.0737 13.7398 21.2717 13.2591 21.2717 12.7579C21.2717 12.2567 21.0737 11.776 20.7213 11.4216C20.3689 11.0672 19.891 10.868 19.3926 10.868H17.4195C17.2802 10.8681 17.1426 10.8369 17.0167 10.7769C16.8908 10.7168 16.7797 10.6294 16.6916 10.5208C16.6035 10.4123 16.5404 10.2854 16.5071 10.1493C16.4737 10.0133 16.4709 9.87143 16.4987 9.73412C16.6103 9.18492 16.5991 8.61763 16.4658 8.07334C16.3325 7.52906 16.0805 7.0214 15.728 6.58716C15.3755 6.15291 14.9314 5.80295 14.4279 5.56262C13.9244 5.32229 13.374 5.19761 12.8166 5.19761C12.2592 5.19761 11.7088 5.32229 11.2053 5.56262C10.7017 5.80295 10.2577 6.15291 9.90519 6.58716C9.55273 7.0214 9.30072 7.52906 9.16741 8.07334C9.03411 8.61763 9.02285 9.18492 9.13445 9.73412C9.16232 9.87143 9.15947 10.0133 9.12611 10.1493C9.09276 10.2854 9.02973 10.4123 8.94159 10.5208C8.85345 10.6294 8.74241 10.7168 8.61652 10.7769C8.49062 10.8369 8.35302 10.8681 8.21368 10.868H6.23872Z" fill="#2E2E2E"/>
</svg>
