<svg width="63" height="63" viewBox="0 0 63 63" fill="none" xmlns="http://www.w3.org/2000/svg">
<path d="M31.2915 28.2383C29.8336 28.2383 28.4083 28.6706 27.1961 29.4807C25.9838 30.2907 25.039 31.442 24.481 32.789C23.9231 34.136 23.7771 35.6182 24.0616 37.0482C24.346 38.4781 25.0481 39.7916 26.0791 40.8226C27.11 41.8535 28.4235 42.5556 29.8535 42.84C31.2835 43.1244 32.7656 42.9784 34.1126 42.4205C35.4596 41.8626 36.6109 40.9177 37.4209 39.7054C38.2309 38.4932 38.6633 37.0679 38.6633 35.61C38.6611 33.6555 37.8837 31.7818 36.5017 30.3998C35.1197 29.0178 33.246 28.2405 31.2915 28.2383ZM31.2915 41.8835C30.0508 41.8835 28.8378 41.5156 27.8062 40.8262C26.7745 40.1368 25.9704 39.157 25.4956 38.0107C25.0208 36.8644 24.8965 35.603 25.1386 34.386C25.3807 33.1691 25.9782 32.0512 26.8556 31.1739C27.7329 30.2965 28.8508 29.699 30.0677 29.4569C31.2847 29.2149 32.5461 29.3391 33.6924 29.814C34.8387 30.2888 35.8185 31.0929 36.5079 32.1246C37.1972 33.1563 37.5652 34.3692 37.5652 35.61C37.5633 37.2732 36.9017 38.8679 35.7256 40.044C34.5494 41.2201 32.9548 41.8816 31.2915 41.8835Z" fill="#2E2E2E"/>
<path d="M31.2772 31.3263C30.2134 29.7406 28.0817 30.4449 27.7227 32.0593C26.1033 32.4192 25.3983 34.5665 27.0081 35.6256C25.4174 36.6926 26.1325 38.8222 27.7411 39.1801C28.0981 40.7864 30.2416 41.5144 31.3075 39.8947C32.3717 41.4811 34.503 40.7755 34.8619 39.1617C36.4816 38.8018 37.1861 36.6544 35.5765 35.5953C37.1673 34.5285 36.4521 32.3988 34.8435 32.041C34.4835 30.4208 32.3357 29.7172 31.2772 31.3263ZM33.6895 35.0534C33.02 35.1084 33.022 36.0953 33.6912 36.148C36.2549 36.3498 35.4202 38.1669 34.3871 38.1097C34.3103 38.1059 34.2336 38.1183 34.1618 38.146C34.0901 38.1736 34.025 38.216 33.9706 38.2704C33.9163 38.3248 33.8739 38.3899 33.8462 38.4616C33.8186 38.5334 33.8062 38.6101 33.81 38.6869C33.8644 39.7206 32.0582 40.5491 31.8494 38.0077C31.7943 37.3348 30.8076 37.3375 30.7549 38.0095C30.5528 40.5728 28.7388 39.7387 28.7931 38.7053C28.797 38.6309 28.7857 38.5565 28.7599 38.4866C28.7341 38.4166 28.6944 38.3527 28.6431 38.2986C28.5918 38.2446 28.53 38.2015 28.4616 38.1721C28.3931 38.1426 28.3194 38.1274 28.2448 38.1274C28.2353 38.1274 28.2257 38.1277 28.216 38.1281C27.1815 38.1843 26.3542 36.3761 28.8951 36.1677C29.5649 36.1127 29.5621 35.1257 28.8934 35.073C26.3307 34.8713 27.1633 33.0578 28.1975 33.1113C28.2744 33.1153 28.3512 33.1031 28.423 33.0755C28.4948 33.0479 28.56 33.0055 28.6144 32.9511C28.6688 32.8967 28.7112 32.8314 28.7388 32.7596C28.7664 32.6878 28.7786 32.611 28.7746 32.5341C28.7202 31.5004 30.5264 30.6718 30.7352 33.2134C30.7903 33.8862 31.777 33.8835 31.8297 33.2115C32.0315 30.6515 33.846 31.4789 33.7915 32.5157C33.7878 32.5925 33.8001 32.6692 33.8278 32.7409C33.8555 32.8126 33.8979 32.8778 33.9522 32.9321C34.0066 32.9865 34.0717 33.0289 34.1434 33.0566C34.2151 33.0843 34.2918 33.0966 34.3686 33.0929C35.4022 33.0404 36.2316 34.8449 33.6895 35.0534Z" fill="#2E2E2E"/>
<path d="M62.04 62.589C62.7655 62.589 62.7671 61.4909 62.04 61.4909H60.4512C60.2926 60.6103 59.6803 58.6566 57.3423 57.6213V53.821C57.3423 49.4005 53.6591 48.2359 50.1694 46.397V43.2571C50.1694 39.4602 48.6363 37.1843 45.9881 34.5363L40.651 29.1991C40.651 22.3148 40.8876 21.8374 39.847 20.7967C37.3679 18.3176 37.0117 18.1594 37.0117 17.2792C37.0117 11.2727 37.2472 10.6824 36.2077 9.64272C32.2327 5.66781 32.3816 5.71866 31.8414 5.54029V3.36166H33.053C33.7801 3.36166 33.7785 2.26353 33.053 2.26353H31.8414V0.544758C31.8414 -0.182424 30.7433 -0.180748 30.7433 0.544758V2.26353H29.5318C28.8046 2.26353 28.8063 3.36166 29.5318 3.36166H30.7433V5.54029C30.213 5.71537 30.3767 5.64316 26.3769 9.64279C25.3417 10.6781 25.5729 11.2557 25.5729 17.2792C25.5729 18.1622 25.2113 18.3232 22.7376 20.7967C21.6973 21.8373 21.9337 22.3123 21.9337 29.1991L16.5966 34.5363C15.2668 35.8588 14.2125 37.4319 13.4948 39.1646C12.7771 40.8974 12.4102 42.7552 12.4153 44.6307V46.397C8.91667 48.2406 5.24237 49.433 5.24237 53.821V57.6213C2.90445 58.6566 2.29216 60.6103 2.13348 61.4909H0.544758C-0.180748 61.4909 -0.182424 62.589 0.544758 62.589H62.04ZM59.3423 61.4909H50.1694V54.1819C53.1992 54.4346 53.1598 57.164 53.1433 57.461C53.1388 57.5358 53.1496 57.6108 53.1751 57.6813C53.2006 57.7518 53.2402 57.8163 53.2915 57.871C53.3428 57.9257 53.4047 57.9693 53.4734 57.9992C53.5422 58.0292 53.6163 58.0447 53.6913 58.045C58.113 58.045 59.1155 60.4455 59.3423 61.4909ZM56.2442 53.821V57.2424C55.5823 57.0768 54.9047 56.9814 54.2228 56.9578C54.083 55.4439 53.1925 53.286 50.1694 53.0795V47.6381C53.1106 49.188 56.2442 50.1663 56.2442 53.821ZM23.5142 21.5732C25.9815 19.106 26.671 18.6948 26.671 17.2792C26.671 11.1697 26.5122 11.0605 27.1535 10.4193L30.8338 6.73909C30.894 6.67884 30.9655 6.63104 31.0442 6.59843C31.1229 6.56583 31.2073 6.54905 31.2924 6.54905C31.3776 6.54906 31.462 6.56585 31.5407 6.59847C31.6194 6.63109 31.6909 6.6789 31.7511 6.73916L35.4311 10.4192C36.0697 11.0578 35.9136 11.149 35.9136 17.2792C35.9136 18.6896 36.5917 19.0944 39.0704 21.5731C39.706 22.2087 39.5528 22.3166 39.5528 28.101L32.4571 21.0052C32.1479 20.6968 31.729 20.5236 31.2923 20.5236C30.8557 20.5236 30.4368 20.6968 30.1276 21.0052L23.0319 28.101C23.0319 22.3067 22.8797 22.2078 23.5142 21.5732ZM6.3405 53.821C6.3405 50.1767 9.45317 49.199 12.4153 47.6381V53.0795C9.39222 53.286 8.50169 55.4439 8.36195 56.9578C7.68001 56.9814 7.00244 57.0768 6.3405 57.2424V53.821ZM8.89346 58.045C8.96819 58.0445 9.04203 58.0288 9.11053 57.999C9.17904 57.9691 9.24077 57.9256 9.292 57.8712C9.34324 57.8168 9.38291 57.7526 9.40862 57.6824C9.43433 57.6123 9.44554 57.5376 9.44158 57.463C9.42467 57.167 9.38394 54.4348 12.4153 54.1819V61.4909H3.24269C3.47017 60.4433 4.4738 58.045 8.89346 58.045ZM24.2332 51.7073C25.1713 49.7005 29.1654 45.9689 31.2926 45.9689C33.4199 45.9689 37.414 49.7005 38.3521 51.7073C39.4224 53.9967 39.0415 56.4404 39.0139 61.4909H37.3664C37.4097 52.8162 38.4367 52.4539 32.2665 47.9343C31.9843 47.7264 31.643 47.6142 31.2925 47.6143C30.9421 47.6143 30.6008 47.7265 30.3186 47.9344C24.1354 52.4647 25.1755 52.8847 25.2188 61.4909H23.5714C23.5438 56.4398 23.1629 53.9967 24.2332 51.7073ZM30.7437 48.9851V61.4909H26.317C26.2748 52.9975 25.3224 52.975 30.7437 48.9851ZM31.8418 48.9852C37.2633 52.9745 36.3101 53.0006 36.2683 61.4909H31.8418L31.8418 48.9852ZM40.112 61.4909C40.1407 56.3002 40.5453 53.8059 39.347 51.2422C38.3405 49.0892 34.0704 44.8708 31.2926 44.8708C28.5149 44.8708 24.2447 49.0892 23.2383 51.2422C22.0397 53.8064 22.4446 56.3045 22.4732 61.4909H13.5135V44.6307C13.5087 42.8995 13.8474 41.1846 14.5099 39.5851C15.1724 37.9857 16.1455 36.5336 17.373 35.3128L30.904 21.7817C31.0071 21.6789 31.1468 21.6212 31.2924 21.6212C31.438 21.6212 31.5776 21.6789 31.6807 21.7817L45.2117 35.3128C47.7148 37.8158 49.0713 39.8232 49.0713 43.2571V61.4909H40.112Z" fill="#2E2E2E"/>
<path d="M33.5436 17.5925C33.5436 11.0753 33.9528 12.0293 32.1602 9.71254C32.0575 9.5801 31.9259 9.47291 31.7754 9.39917C31.6249 9.32544 31.4596 9.2871 31.292 9.28711C31.1244 9.28712 30.959 9.32546 30.8086 9.39921C30.6581 9.47296 30.5264 9.58016 30.4238 9.7126C28.64 12.018 29.0404 11.0565 29.0404 17.5925C29.0404 17.7382 29.0982 17.8778 29.2012 17.9808C29.3042 18.0837 29.4438 18.1416 29.5894 18.1416H32.9946C33.1402 18.1416 33.2798 18.0837 33.3828 17.9808C33.4858 17.8778 33.5436 17.7382 33.5436 17.5925ZM32.4464 17.0435H30.1376C30.1184 11.3246 29.7981 12.3181 31.2919 10.3847C32.7943 12.3274 32.4658 11.2418 32.4464 17.0435Z" fill="#2E2E2E"/>
<path d="M29.0455 56.0703H27.3514C26.6242 56.0703 26.6259 57.1684 27.3514 57.1684H29.0455C29.7727 57.1684 29.771 56.0703 29.0455 56.0703Z" fill="#2E2E2E"/>
<path d="M35.233 56.0703H33.5389C32.8117 56.0703 32.8134 57.1684 33.5389 57.1684H35.233C35.9602 57.1684 35.9585 56.0703 35.233 56.0703Z" fill="#2E2E2E"/>
</svg>
