<svg width="65" height="65" viewBox="0 0 65 65" fill="none" xmlns="http://www.w3.org/2000/svg">
<path d="M5.38103 44.0417C5.97549 44.0417 6.45738 43.5598 6.45738 42.9654V40.8127C6.45738 40.2182 5.97549 39.7363 5.38103 39.7363C4.78658 39.7363 4.30469 40.2182 4.30469 40.8127V42.9654C4.30469 43.5598 4.78658 44.0417 5.38103 44.0417Z" fill="#2E2E2E"/>
<path d="M9.68768 44.0417C10.2821 44.0417 10.764 43.5598 10.764 42.9654V40.8127C10.764 40.2182 10.2821 39.7363 9.68768 39.7363C9.09323 39.7363 8.61133 40.2182 8.61133 40.8127V42.9654C8.61133 43.5598 9.09323 44.0417 9.68768 44.0417Z" fill="#2E2E2E"/>
<path d="M19.3752 50.5C18.7807 50.5 18.2988 50.9819 18.2988 51.5763V59.1108C18.2988 59.7052 18.7807 60.1871 19.3752 60.1871C19.9696 60.1871 20.4515 59.7052 20.4515 59.1108V51.5763C20.4515 50.9819 19.9696 50.5 19.3752 50.5Z" fill="#2E2E2E"/>
<path d="M45.2072 50.5C44.6128 50.5 44.1309 50.9819 44.1309 51.5763V59.1108C44.1309 59.7052 44.6128 60.1871 45.2072 60.1871C45.8017 60.1871 46.2836 59.7052 46.2836 59.1108V51.5763C46.2836 50.9819 45.8017 50.5 45.2072 50.5Z" fill="#2E2E2E"/>
<path d="M19.3752 38.6602C18.7807 38.6602 18.2988 39.1421 18.2988 39.7365V42.9655C18.2988 43.56 18.7807 44.0419 19.3752 44.0419C19.9696 44.0419 20.4515 43.56 20.4515 42.9655V39.7365C20.4515 39.1421 19.9696 38.6602 19.3752 38.6602Z" fill="#2E2E2E"/>
<path d="M45.2072 38.6602C44.6128 38.6602 44.1309 39.1421 44.1309 39.7365V42.9655C44.1309 43.56 44.6128 44.0419 45.2072 44.0419C45.8017 44.0419 46.2836 43.56 46.2836 42.9655V39.7365C46.2836 39.1421 45.8017 38.6602 45.2072 38.6602Z" fill="#2E2E2E"/>
<path d="M54.8947 44.0417C55.4892 44.0417 55.9711 43.5598 55.9711 42.9654V40.8127C55.9711 40.2182 55.4892 39.7363 54.8947 39.7363C54.3003 39.7363 53.8184 40.2182 53.8184 40.8127V42.9654C53.8184 43.5598 54.3003 44.0417 54.8947 44.0417Z" fill="#2E2E2E"/>
<path d="M59.1994 44.0417C59.7938 44.0417 60.2757 43.5598 60.2757 42.9654V40.8127C60.2757 40.2182 59.7938 39.7363 59.1994 39.7363C58.6049 39.7363 58.123 40.2182 58.123 40.8127V42.9654C58.123 43.5598 58.6049 44.0417 59.1994 44.0417Z" fill="#2E2E2E"/>
<path d="M61.7285 5.29333C60.5418 4.13539 59.6042 2.74722 58.9731 1.21398C58.6089 0.483322 57.8628 0.021527 57.0464 0.021527C56.2301 0.021527 55.4839 0.483322 55.1198 1.21398C54.7881 1.95628 54.4069 2.67546 53.9788 3.36667C52.5688 5.56242 49.512 7.05854 49.512 11.181C49.5089 12.6251 50.0377 14.0197 50.9974 15.0989C50.1158 15.3863 49.5173 16.2059 49.512 17.1332V19.2859C49.512 20.4748 50.4758 21.4385 51.6647 21.4385V25.7439H12.9162V21.4385C14.1051 21.4385 15.0689 20.4748 15.0689 19.2859V17.1332C15.0729 16.198 14.4726 15.3672 13.5835 15.0773C14.5383 14.0038 15.0667 12.6176 15.0689 11.181C15.0689 8.28558 13.5512 6.68182 12.2166 5.29333C11.0274 4.12909 10.0896 2.73339 9.46111 1.19245C9.09695 0.461795 8.35082 0 7.53445 0C6.71807 0 5.97194 0.461795 5.60778 1.19245C5.2761 1.93475 4.89493 2.65393 4.46686 3.34515C3.05684 5.56242 1.32728e-05 7.05854 1.32728e-05 11.181C-0.0030543 12.6251 0.525699 14.0197 1.48537 15.0989C0.603802 15.3863 0.00533745 16.2059 1.32728e-05 17.1332V19.2859C1.32728e-05 20.4748 0.963808 21.4385 2.15271 21.4385V30.0493H1.07636C0.48191 30.0493 1.32728e-05 30.5312 1.32728e-05 31.1257V63.4161C1.32728e-05 64.0106 0.48191 64.4924 1.07636 64.4924H63.5045C64.099 64.4924 64.5809 64.0106 64.5809 63.4161V31.1257C64.5809 30.5312 64.099 30.0493 63.5045 30.0493H62.4282V21.4385C63.6171 21.4385 64.5809 20.4748 64.5809 19.2859V17.1332C64.5848 16.198 63.9846 15.3672 63.0955 15.0773C64.0502 14.0038 64.5787 12.6176 64.5809 11.181C64.5809 8.28558 63.0632 6.68182 61.7285 5.29333ZM57.0464 2.06429C57.7659 3.81668 58.827 5.40831 60.1678 6.7464C61.4272 8.08107 62.4282 9.13589 62.4282 11.181C62.4282 13.2794 60.7271 14.9805 58.6287 14.9805H55.4642C53.3658 14.9805 51.6647 13.2794 51.6647 11.181C51.6647 7.44603 55.1843 6.91862 57.0464 2.06429ZM62.4282 32.202V34.3547H51.6647V32.202H62.4282ZM62.4282 50.4999H51.6647V48.3472H62.4282V50.4999ZM22.6033 32.202V34.3547H15.0689V32.202H22.6033ZM39.8249 32.202V34.3547H24.756V32.202H39.8249ZM49.512 32.202V34.3547H41.9776V32.202H49.512ZM62.4282 46.1945H51.6647V36.5074H62.4282V46.1945ZM12.9162 46.1945H2.15271V36.5074H12.9162V46.1945ZM2.15271 48.3472H12.9162V50.4999H2.15271V48.3472ZM15.0689 36.5074H22.6033V46.1945H15.0689V36.5074ZM24.756 36.5074H39.8249V39.7365H24.756V36.5074ZM41.9776 36.5074H49.512V46.1945H41.9776V36.5074ZM51.6647 27.8966V30.0493H12.9162V27.8966H51.6647ZM2.15271 19.2859V17.1332H12.9162V19.2859H2.15271ZM7.53445 2.06429C8.25389 3.81668 9.31497 5.40831 10.6559 6.7464C11.9152 8.08107 12.9162 9.13589 12.9162 11.181C12.9162 13.2794 11.2151 14.9805 9.11668 14.9805H5.95222C3.85381 14.9805 2.15271 13.2794 2.15271 11.181C2.15271 7.44603 5.67236 6.91862 7.53445 2.06429ZM4.3054 21.4385H10.7635V30.0493H4.3054V21.4385ZM2.15271 32.202H12.9162V34.3547H2.15271V32.202ZM2.15271 52.6526H12.9162V62.3398H2.15271V52.6526ZM15.0689 48.3472H22.6033V62.3398H15.0689V48.3472ZM24.756 41.8891H39.8249V62.3398H37.6722V52.2113C37.6722 49.4236 36.6712 47.6046 33.722 45.0213C32.9059 44.2947 31.6749 44.2947 30.8589 45.0213C27.9097 47.6046 26.9087 49.4236 26.9087 52.2113V62.3398H24.756V41.8891ZM29.0614 62.3398V52.2113C29.0614 50.3385 29.5457 48.9823 32.2904 46.6358C35.0244 49.0361 35.5195 50.3385 35.5195 52.2113V62.3398H29.0614ZM41.9776 48.3472H49.512V62.3398H41.9776V48.3472ZM51.6647 62.3398V52.6526H62.4282V62.3398H51.6647ZM60.2755 30.0493H53.8174V21.4385H60.2755V30.0493ZM51.6647 19.2859V17.1332H62.4282V19.2859H51.6647Z" fill="#2E2E2E"/>
</svg>
