<svg width="66" height="66" viewBox="0 0 66 66" fill="none" xmlns="http://www.w3.org/2000/svg">
<path d="M0.816678 65.3193H64.5032C64.9542 65.3193 65.3193 64.9536 65.3193 64.5026V58.1411C65.3193 57.6901 64.9542 57.3244 64.5032 57.3244H64.1263V38.1745C64.1263 37.7914 63.8572 37.4842 63.5015 37.3964L64.1226 30.9109C64.145 30.6823 64.069 30.4549 63.9145 30.2842C63.76 30.1142 63.5408 30.017 63.3103 30.017H63.0898L63.6361 24.8416C63.661 24.6117 63.5862 24.3818 63.4311 24.2099C63.2766 24.0374 63.0555 23.9396 62.8244 23.9396H62.473L62.944 19.4456C62.9689 19.2158 62.8941 18.9865 62.739 18.8146C62.5845 18.6427 62.3634 18.5442 62.1323 18.5442H62.1074C61.7025 13.7569 59.6935 10.6434 56.4081 9.75885C56.2617 9.72023 56.0941 9.7221 55.9477 9.7657C52.6798 10.7537 50.6801 13.8647 50.274 18.5442H50.2372C50.0061 18.5442 49.7849 18.6427 49.6305 18.8146C49.476 18.9859 49.4006 19.2158 49.4255 19.4456L49.8958 23.9396H49.5451C49.314 23.9396 49.0929 24.0374 48.9384 24.2099C48.7839 24.3818 48.7085 24.6111 48.7334 24.8416L49.2791 30.017H49.0586C48.8281 30.017 48.6088 30.1142 48.4543 30.2842C48.2999 30.4549 48.2239 30.6823 48.2463 30.9109L48.8636 37.3578H44.4252V32.1145C45.2038 31.7363 45.7776 30.9913 45.8878 30.083L46.6908 23.4381C46.7761 22.7279 46.5537 22.014 46.0791 21.4789C45.767 21.1276 45.3614 20.8865 44.9198 20.7544L45.7452 14.5493C45.8399 13.8354 45.6218 13.1147 45.1478 12.5727C44.6743 12.0307 43.9885 11.7193 43.2683 11.7186H43.1855C42.618 6.22925 38.9788 2.08418 32.9219 0.0421636C32.7493 -0.0157702 32.5344 -0.0139013 32.3619 0.0471471C26.3262 2.22185 22.695 6.35571 22.1194 11.6931H22.0335C22.0329 11.6931 22.0322 11.6931 22.031 11.6931C21.309 11.6931 20.6225 12.0046 20.1478 12.5484C19.6719 13.0928 19.4551 13.8155 19.5523 14.5319L20.397 20.7395C19.9348 20.8678 19.5112 21.1176 19.1879 21.4845C18.7126 22.0234 18.4927 22.7404 18.5824 23.453L19.4252 30.0974C19.538 30.9863 20.0968 31.717 20.8542 32.0983V37.3578H16.1093L16.7273 30.9109C16.7497 30.6823 16.6737 30.4549 16.5192 30.2842C16.3641 30.1142 16.1448 30.017 15.9149 30.017H15.6944L16.2407 24.8416C16.2657 24.6117 16.1903 24.3818 16.0358 24.2099C15.8813 24.0374 15.6602 23.9396 15.429 23.9396H15.0777L15.548 19.4456C15.5723 19.2158 15.4976 18.9859 15.3431 18.8146C15.188 18.6427 14.9674 18.5442 14.7363 18.5442H14.712C14.3071 13.7575 12.2981 10.6434 9.01211 9.75885C8.8651 9.72023 8.69877 9.7221 8.55238 9.7657C5.28255 10.7543 3.28353 13.8647 2.87737 18.5442H2.84124C2.60951 18.5442 2.38898 18.6427 2.23449 18.8146C2.07938 18.9865 2.00463 19.2158 2.02955 19.4456L2.49987 23.9396H2.14915C1.91742 23.9396 1.6969 24.0374 1.54241 24.2099C1.38729 24.3818 1.31254 24.6117 1.33746 24.8416L1.88316 30.017H1.66326C1.43277 30.017 1.21349 30.1142 1.059 30.2842C0.904513 30.4549 0.828514 30.6823 0.85094 30.9109L1.48759 37.5602C1.31129 37.7097 1.19356 37.9253 1.19356 38.1745V57.3244H0.816678C0.365044 57.3244 0 57.6901 0 58.1411V64.5026C0 64.9536 0.365044 65.3193 0.816678 65.3193ZM63.6865 63.6865H1.63273V58.9578H63.6865V63.6865ZM22.4876 32.3861H42.7924V57.3244H38.4306V47.0844C38.4306 43.8912 35.8329 41.2935 32.6403 41.2935C29.4477 41.2935 26.8494 43.8912 26.8494 47.0844V57.3244H22.4876V32.3861ZM36.7978 57.3244H28.4828V47.0844C28.4828 44.792 30.3479 42.9269 32.6403 42.9269C34.9328 42.9269 36.7978 44.792 36.7978 47.0844V57.3244ZM59.2674 57.3244V51.8082C59.2674 51.3572 58.9023 50.9915 58.4507 50.9915C57.9997 50.9915 57.6346 51.3572 57.6346 51.8082V57.3244H54.4265V38.9911H62.4936V57.3244H59.2674ZM56.2025 11.3997C59.2269 12.3534 60.2111 15.67 60.4734 18.5442H51.9086C52.1739 15.726 53.165 12.4531 56.2025 11.3997ZM51.1436 20.1776H61.2259L60.8322 23.9396H51.5373L51.1436 20.1776ZM50.4527 25.5723H61.9174L61.4483 30.017H50.9206L50.4527 25.5723ZM49.9575 31.6497H62.4114L61.8651 37.3578H50.5038L49.9575 31.6497ZM52.7938 38.9911V57.3244H49.4255V51.8082C49.4255 51.3572 49.0605 50.9915 48.6088 50.9915C48.1578 50.9915 47.7928 51.3572 47.7928 51.8082V57.3244H44.4252V38.9911H52.7938ZM32.6584 1.67864C37.9285 3.5319 40.9878 6.99672 41.5391 11.7161L23.7659 11.695C24.3265 7.10698 27.3895 3.65026 32.6584 1.67864ZM21.3775 13.623C21.5451 13.4311 21.7768 13.3258 22.0304 13.3258H22.0322L43.2665 13.3514C43.52 13.352 43.7524 13.4573 43.9187 13.6479C44.0856 13.8385 44.1598 14.0827 44.1261 14.3344L43.2883 20.6373H22.0316L21.1707 14.3113C21.1364 14.059 21.2099 13.8148 21.3775 13.623ZM20.2027 23.2475C20.1709 22.9964 20.2456 22.7541 20.4126 22.5641C20.5802 22.3747 20.8113 22.2701 21.0642 22.2701H44.2077C44.4594 22.2701 44.6899 22.3735 44.8568 22.5622C45.0238 22.7504 45.0992 22.9921 45.0686 23.2419L44.2657 29.8868C44.2065 30.3808 43.7866 30.7527 43.2889 30.7527H22.0223C21.5283 30.7527 21.1078 30.3827 21.0455 29.8924L20.2027 23.2475ZM20.8542 57.3244H17.5277V51.8082C17.5277 51.3572 17.1627 50.9915 16.7111 50.9915C16.26 50.9915 15.895 51.3572 15.895 51.8082V57.3244H12.5268V38.9911H20.8542V57.3244ZM3.10848 37.3578L2.56216 31.6497H15.016L14.4697 37.3578H3.10848ZM8.80592 11.3997C11.8322 12.354 12.8158 15.67 13.0768 18.5442H4.51322C4.77735 15.726 5.7672 12.4537 8.80592 11.3997ZM3.74762 20.1776H13.8293L13.4362 23.9396H4.14132L3.74762 20.1776ZM3.05616 25.5723H14.5214L14.053 30.017H3.52523L3.05616 25.5723ZM2.82691 38.9911H10.8934V57.3244H7.68587V51.8082C7.68587 51.3572 7.32082 50.9915 6.86919 50.9915C6.41818 50.9915 6.05251 51.3572 6.05251 51.8082V57.3244H2.82691V38.9911Z" fill="#2E2E2E"/>
</svg>
