<svg width="40" height="64" viewBox="0 0 40 64" fill="none" xmlns="http://www.w3.org/2000/svg">
<path d="M19.7685 0C19.2114 0 18.6544 0.373925 18.6704 1.1217V4.60056V13.169H17.5744C17.3814 13.1676 17.1909 13.2171 17.0231 13.3125L9.66439 17.5613H5.49709C4.89063 17.559 4.39711 18.0487 4.39466 18.6552C4.39466 19.6319 4.89404 20.5051 5.59359 21.1689C6.29318 21.8326 7.21166 22.3574 8.29388 22.7904C9.67036 23.3409 11.346 23.7209 13.1819 23.9399V26.9533L3.01556 29.6815C2.53304 29.808 2.19652 30.2442 2.19627 30.7431C2.19627 31.5923 2.66564 32.3161 3.25795 32.8429C3.85021 33.3698 4.59965 33.7697 5.47991 34.0998C7.24051 34.76 9.53548 35.1292 12.0794 35.1292V37.9861L1.91317 40.7143C1.43401 40.8442 1.10164 41.2794 1.10243 41.7759C1.10243 42.6251 1.56325 43.3488 2.15551 43.8757C2.74778 44.4025 3.49722 44.8024 4.37752 45.1325C6.13808 45.7927 8.43948 46.162 10.9834 46.162V48.918L0.819332 51.642C0.336764 51.7685 0.000249024 52.2047 0 52.7036C0 53.5528 0.469411 54.2829 1.06167 54.8097C1.65394 55.3366 2.40338 55.728 3.28368 56.0581C5.04424 56.7183 7.33705 57.0961 9.88104 57.0961V62.5847C9.87871 63.1945 10.3736 63.6893 10.9834 63.687H28.5514C29.1612 63.6893 29.6561 63.1945 29.6538 62.5847V57.0961C32.1977 57.0961 34.4905 56.7185 36.2511 56.0581C37.1314 55.7281 37.8873 55.3366 38.4795 54.8097C39.0718 54.2829 39.5348 53.5528 39.5348 52.7036C39.5356 52.2072 39.2032 51.7719 38.724 51.642L28.5514 48.918V46.162C31.0953 46.162 33.3967 45.7926 35.1573 45.1325C36.0376 44.8025 36.7848 44.4025 37.3771 43.8757C37.9694 43.3488 38.4409 42.6251 38.4409 41.7759C38.4407 41.277 38.1043 40.841 37.6217 40.7143L27.4554 37.9861V35.1292C29.9993 35.1292 32.2943 34.7598 34.0549 34.0998C34.9351 33.7698 35.691 33.3698 36.2833 32.8429C36.8756 32.3161 37.3385 31.5923 37.3385 30.7431C37.3393 30.2467 37.0069 29.8115 36.5278 29.6815L26.353 26.9512V23.9399C28.1887 23.7208 29.8645 23.3409 31.2409 22.7904C32.3232 22.3574 33.2416 21.8326 33.9412 21.1689C34.6407 20.5051 35.1401 19.6319 35.1401 18.6552C35.1377 18.052 34.6494 17.5637 34.0463 17.5613H29.8704L22.5116 13.3147C22.3465 13.22 22.1597 13.1694 21.969 13.169H20.8666V4.53621V1.1217C20.8832 0.373842 20.3255 0 19.7685 0ZM17.866 15.3652H21.6687L25.4693 17.5615H14.0655L17.866 15.3652ZM7.41665 19.7577H32.1181C31.7005 20.0931 31.1938 20.441 30.4302 20.7465C28.6249 21.4685 25.9868 21.9562 23.0629 21.9562H16.4719C13.548 21.9562 10.9163 21.4685 9.11106 20.7465C8.34705 20.441 7.83435 20.0935 7.41665 19.7577ZM15.3781 24.1524H24.1653V26.3486H15.3781V24.1524ZM15.7192 28.5449H23.8008L34.4689 31.3996C34.1605 31.6146 33.8285 31.8349 33.285 32.0387C31.8698 32.5694 29.7784 32.9395 27.4555 32.9395H12.0795C9.75661 32.9395 7.66522 32.5694 6.25001 32.0387C5.70718 31.8354 5.38308 31.6144 5.0747 31.3996L15.7192 28.5449ZM14.2758 35.1851H25.2593V37.3814H14.2758V35.1851ZM14.6232 39.5777H24.9031L35.5627 42.4324C35.2543 42.6473 34.9302 42.868 34.3874 43.0715C32.9722 43.6022 30.8744 43.9723 28.5514 43.9723C22.7446 43.8918 16.8286 43.9723 10.9835 43.9723C8.66057 43.9723 6.56279 43.6025 5.14758 43.0715C4.60475 42.8681 4.28065 42.6471 3.97223 42.4324L14.6232 39.5777ZM13.1819 46.1621H26.3531V48.309C21.9627 48.309 17.5723 48.309 13.1819 48.309V46.1621ZM13.5206 50.5053H25.9968L36.6564 53.3578C36.348 53.572 36.022 53.8048 35.481 54.0077C34.0658 54.5384 31.9766 54.9 29.6537 54.9C23.0628 54.9 16.4718 54.9 9.88096 54.9C7.55797 54.9 5.46878 54.5385 4.05358 54.0077C3.51037 53.8039 3.18668 53.5727 2.87822 53.3578L13.5206 50.5053ZM12.0793 57.0962H27.4553V61.4888H12.0793V57.0962Z" fill="#2E2E2E"/>
</svg>
