<svg width="71" height="71" viewBox="0 0 71 71" fill="none" xmlns="http://www.w3.org/2000/svg">
<path d="M49.1261 63.6836H21.7812V67.124H49.1261V63.6836Z" fill="white"/>
<path d="M49.7996 67.7977H21.1055V63.0098H49.7996V67.7977ZM22.4544 66.4501H48.4506V64.3573H22.4544V66.4501Z" fill="#414042"/>
<path d="M49.1261 55.1992H21.7812V60.3173H49.1261V55.1992Z" fill="white"/>
<path d="M49.7996 60.9891H21.1055V54.5234H49.7996V60.9891ZM22.4544 59.6415H48.4506V55.871H22.4544V59.6415Z" fill="#414042"/>
<path d="M48.7602 63.6836H22.1452L19.6426 60.3184H51.2628L48.7602 63.6836Z" fill="white"/>
<path d="M49.0985 64.3573H21.8053L18.3008 59.6445H52.6034L49.0985 64.3573ZM22.4838 63.0097H48.4204L49.921 60.9921H20.9835L22.4838 63.0097Z" fill="#414042"/>
<path d="M35.4512 37.5586V55.1993H37.7025V42.422C37.7025 42.422 37.7025 42.422 38.0877 42.422C38.0394 41.9655 38.6171 41.8213 39.1223 41.7253C39.0262 41.0761 39.5796 40.9562 40.3016 40.7395C40.3738 39.5618 41.6252 40.0422 41.6252 40.0422C41.6252 40.0422 42.8764 39.5618 42.9485 40.7395C43.6705 40.9562 44.2243 41.0761 44.1278 41.7253C44.633 41.8216 45.2107 41.9655 45.1628 42.422C45.5476 42.422 45.5476 42.422 45.5476 42.422V55.1993H47.7989V37.5586H35.4512Z" fill="white"/>
<path d="M48.4737 55.8727H44.8734V43.0954H44.4144L44.4765 42.5058C44.3955 42.4748 44.2529 42.4344 44.002 42.3869L43.3663 42.2656L43.4611 41.6262C43.4611 41.6252 43.4614 41.6245 43.4614 41.6238C43.3488 41.5602 43.0857 41.4823 42.8868 41.4237L42.3044 41.2492L42.2757 40.7799C42.27 40.6853 42.2521 40.6344 42.2437 40.6185C42.2447 40.6246 42.2137 40.6179 42.1627 40.6179C42.0383 40.6179 41.9037 40.657 41.8623 40.6721L41.6252 40.7584L41.3837 40.6701C41.3476 40.657 41.2131 40.6179 41.0883 40.6179C41.0303 40.6179 40.9989 40.627 40.9915 40.6304C41.0104 40.6317 40.9814 40.6792 40.975 40.7796L40.9463 41.2489L40.3639 41.4234C40.165 41.4824 39.9019 41.5598 39.7893 41.6235C39.7893 41.6242 39.7896 41.6252 39.7896 41.6259L39.8844 42.2653L39.249 42.3866C38.9988 42.4344 38.8562 42.4748 38.7752 42.5052L38.8376 43.095H38.3776V55.8724H34.7773V36.8848H48.4737V55.8727ZM46.2223 54.5251H47.1248V38.2323H36.1263V54.5251H37.0287V41.7478H37.5996C37.8145 41.451 38.176 41.2826 38.4933 41.1835C38.6731 40.6172 39.244 40.3655 39.7202 40.2112C39.9181 39.6207 40.4115 39.2706 41.0883 39.2706C41.295 39.2706 41.4842 39.304 41.6255 39.3387C41.7668 39.304 41.956 39.2706 42.1627 39.2706C42.8396 39.2706 43.3329 39.6207 43.5309 40.2112C44.0071 40.3655 44.5777 40.6172 44.7577 41.1835C45.0751 41.2826 45.4362 41.451 45.6514 41.7478H46.2223V54.5251Z" fill="#414042"/>
<path d="M23.1055 37.5586V55.1993H25.3568V42.422C25.3568 42.422 25.3568 42.422 25.7419 42.422C25.6937 41.9655 26.2714 41.8213 26.7766 41.7253C26.6805 41.0761 27.2339 40.9562 27.9559 40.7395C28.028 39.5618 29.2795 40.0422 29.2795 40.0422C29.2795 40.0422 30.5306 39.5618 30.6028 40.7395C31.3248 40.9562 31.8786 41.0761 31.7821 41.7253C32.2873 41.8216 32.865 41.9655 32.8171 42.422C33.2019 42.422 33.2019 42.422 33.2019 42.422V55.1993H35.4532V37.5586H23.1055Z" fill="white"/>
<path d="M36.1267 55.8727H32.5264V43.0954H32.0671L32.1292 42.5058C32.0482 42.4748 31.9056 42.4344 31.6547 42.3869L31.019 42.2656L31.1141 41.6262C31.1141 41.6255 31.1144 41.6249 31.1144 41.6242C31.0018 41.5605 30.7388 41.4827 30.5398 41.4241L29.9574 41.2496L29.9287 40.7803C29.9227 40.6856 29.9051 40.6347 29.8967 40.6189C29.898 40.625 29.8667 40.6182 29.8157 40.6182C29.6913 40.6182 29.5568 40.6573 29.5153 40.6725L29.2782 40.7587L29.0367 40.6704C29.0003 40.6573 28.8661 40.6182 28.7413 40.6182C28.6833 40.6182 28.6516 40.6273 28.6445 40.6307C28.6516 40.632 28.6344 40.6772 28.628 40.7799L28.5993 41.2492L28.0169 41.4237C27.818 41.4823 27.5549 41.5602 27.4423 41.6238C27.4423 41.6245 27.4423 41.6252 27.4426 41.6262L27.5374 42.2656L26.9017 42.3869C26.6512 42.4347 26.5088 42.4752 26.4276 42.5055L26.4896 43.0954H26.03V55.8727H22.4297V36.8848H36.1264L36.1267 55.8727ZM33.8754 54.5251H34.7778V38.2323H23.7789V54.5251H24.6814V41.7478H25.2526C25.4675 41.451 25.8286 41.2826 26.146 41.1835C26.3257 40.6172 26.8967 40.3655 27.3728 40.2112C27.5708 39.6207 28.0642 39.2706 28.7413 39.2706C28.9481 39.2706 29.1372 39.304 29.2785 39.3387C29.4198 39.304 29.609 39.2706 29.8157 39.2706C30.4926 39.2706 30.9859 39.6207 31.1839 40.2112C31.6601 40.3655 32.231 40.6172 32.4107 41.1835C32.7281 41.2826 33.0896 41.451 33.3044 41.7478H33.8754V54.5251Z" fill="#414042"/>
<path d="M47.7987 34.6699H23.1035V37.5601H47.7987V34.6699Z" fill="white"/>
<path d="M48.4738 38.2339H22.4297V33.9961H48.4738V38.2339ZM23.7786 36.8863H47.1249V35.3437H23.7786V36.8863Z" fill="#414042"/>
<path d="M45.3881 28.1914H25.5137V31.1877H45.3881V28.1914Z" fill="white"/>
<path d="M46.0632 31.8615H24.8398V27.5176H46.0636L46.0632 31.8615ZM26.1888 30.5139H44.7146V28.8651H26.1888V30.5139Z" fill="#414042"/>
<path d="M46.4958 31.1855H24.4077L18.873 34.6683H52.0304L46.4958 31.1855Z" fill="white"/>
<path d="M54.3668 35.3421H16.5371L24.2135 30.5117H46.6904L54.3668 35.3421ZM21.2098 33.9945H49.6945L46.3012 31.8593H24.603L21.2098 33.9945Z" fill="#414042"/>
<path d="M43.5654 23.0652C42.7692 21.2143 38.196 18.9062 38.196 18.9062H32.7099C32.7099 18.9062 28.1367 21.2143 27.3402 23.0652C26.544 24.9161 26.2148 28.1887 26.2148 28.1887H44.6908C44.6908 28.1887 44.3617 24.9161 43.5654 23.0652Z" fill="white"/>
<path d="M45.4359 28.8624H25.4688L25.5433 28.1212C25.5571 27.9834 25.892 24.7237 26.7199 22.799C27.5879 20.7817 31.9146 18.5525 32.4049 18.3049L32.5483 18.2324H38.3557L38.4991 18.3049C38.9897 18.5521 43.3161 20.7817 44.1841 22.799C45.012 24.7237 45.3469 27.9834 45.3607 28.1212L45.4359 28.8624ZM26.9768 27.5148H43.9282C43.7852 26.4678 43.4689 24.5475 42.9455 23.331C42.4507 22.1811 39.7313 20.4566 38.0333 19.58H32.872C31.1737 20.4566 28.4543 22.1811 27.9595 23.3313C27.4362 24.5481 27.1198 26.4678 26.9768 27.5148Z" fill="#414042"/>
<path d="M37.6315 16.0215H33.2734V18.908H37.6315V16.0215Z" fill="white"/>
<path d="M38.3046 19.5817H32.5977V15.3477H38.3046V19.5817ZM33.9469 18.2342H36.9561V16.6952H33.9469V18.2342Z" fill="#414042"/>
<path d="M36.8152 10.1973H34.0859V16.0225H36.8152V10.1973Z" fill="white"/>
<path d="M37.4903 16.6962H33.4121V9.52344H37.4903V16.6962ZM34.7614 15.3486H36.1417V10.871H34.7614V15.3486Z" fill="#414042"/>
<path d="M36.1263 3.30664H34.7773V10.1968H36.1263V3.30664Z" fill="#414042"/>
</svg>
