<svg viewBox="0 0 32 32" xmlns="http://www.w3.org/2000/svg"><g id="Success" fill="#231f20"><path d="m30 21.85-1.49-3.27a1 1 0 0 0 -.47-.48.58.58 0 0 0 -.17-.06 1 1 0 0 0 -.46 0h-.08l-3.56 1a1 1 0 1 0 .53 1.93l1.74-.48a11 11 0 0 1 -20.7-1.76 1 1 0 0 0 -1.94.5 13 13 0 0 0 24.32 2.4l.48 1.05a1 1 0 0 0 1.33.49 1 1 0 0 0 .58-.91 1 1 0 0 0 -.11-.41z"/><path d="m3.47 13.42a1 1 0 0 0 .47.48.58.58 0 0 0 .17.06 1 1 0 0 0 .46 0h.08l3.56-1a1 1 0 1 0 -.53-1.93l-1.74.48a11 11 0 0 1 20.72 1.73 1 1 0 0 0 1 .75h.25a1 1 0 0 0 .72-1.22 13 13 0 0 0 -24.32-2.4l-.48-1a1 1 0 0 0 -1.33-.49 1 1 0 0 0 -.58.91 1 1 0 0 0 .09.41l1.49 3.27z"/><path d="m20.3 12.28-5.51 5.33-3.09-3a1 1 0 0 0 -1.4 1.44l3.8 3.67a1 1 0 0 0 .69.28 1 1 0 0 0 .7-.28l6.21-6a1 1 0 1 0 -1.4-1.44z"/></g></svg>