<svg width="34" height="34" viewBox="0 0 34 34" fill="none" xmlns="http://www.w3.org/2000/svg">
<path d="M32.2253 9.49258C32.699 9.74437 33.0745 10.1491 33.2666 10.7122C33.6145 11.7319 33.0552 12.665 32.2102 13.3729C31.7993 13.7171 31.321 14.0081 30.8465 14.2299L24.2286 17.3245L15.3414 21.4801L13.0385 22.5569L10.3332 23.8219L0.424988 28.4549L29.1394 10.1088C30.0816 9.5068 31.238 8.96785 32.2253 9.49258Z" fill="black"/>
<path d="M29.6935 11.4251L29.373 11.6183C28.9537 11.8712 28.8488 12.4333 29.1487 12.8203V12.8203C29.4034 13.1489 29.8641 13.2343 30.2196 13.0189L30.9966 12.5479C31.4021 12.3022 31.514 11.7642 31.2403 11.3771V11.3771C30.993 11.0275 30.5178 10.9281 30.1511 11.1492L29.6935 11.4251ZM29.6935 11.4251C30.5506 12.1537 31.443 12.6134 32.213 13.3758C33.8008 14.9475 32.8839 17.4831 31.2844 19.0429L30.3096 19.9935C30.0799 20.2175 30.0264 20.5666 30.1785 20.8491V20.8491C30.3866 21.2358 30.8896 21.3473 31.2415 21.0848L32.6372 20.0442C32.8957 19.8515 33.2542 19.9276 33.3399 20.2385C33.4788 20.742 33.5568 21.559 33.1157 22.5569M27.6075 8.05176C28.205 8.19544 29.3479 8.80799 29.1394 10.1088M29.1394 10.1088L0.424988 28.4549L10.3332 23.8219L13.0385 22.5569L15.3414 21.4801L24.2286 17.3245L30.8465 14.2299C32.297 13.5517 33.7837 12.2277 33.2666 10.7122C33.0745 10.1491 32.699 9.74437 32.2253 9.49258C31.238 8.96785 30.0816 9.5068 29.1394 10.1088V10.1088Z" stroke="black" stroke-width="0.5"/>
<path d="M30.5455 12.8561L31.3225 12.3852C31.7279 12.1395 31.8399 11.6015 31.5661 11.2144C31.3188 10.8648 30.8436 10.7654 30.4769 10.9865L30.0193 11.2624L29.6988 11.4556C29.2795 11.7084 29.1746 12.2705 29.4746 12.6576C29.7293 12.9862 30.1899 13.0716 30.5455 12.8561Z" fill="white"/>
<path d="M29.6936 11.4251C30.5507 12.1537 31.4431 12.6134 32.2132 13.3758C33.8009 14.9475 32.884 17.4831 31.2845 19.0429L30.3098 19.9935C30.0801 20.2175 30.0266 20.5666 30.1787 20.8491V20.8491C30.3868 21.2358 30.8897 21.3473 31.2417 21.0848L32.6373 20.0442C32.8959 19.8515 33.2543 19.9276 33.3401 20.2385C33.479 20.742 33.557 21.559 33.1159 22.5569M27.6077 8.05176C28.2052 8.19544 29.3481 8.80799 29.1395 10.1088" stroke="black" stroke-width="0.5"/>
<path d="M29.6283 2.54335V0.424805H4.10799V2.54335M29.6283 2.54335H4.10799M29.6283 2.54335L27.6075 5.90042M4.10799 2.54335L5.06047 3.94484L6.3895 5.90042M6.3895 5.90042H7.49766M6.3895 5.90042V7.20414M27.6075 5.90042H22.1319M27.6075 5.90042V6.9108M27.6075 27.6399L29.6283 30.9318M27.6075 27.6399H25.163M27.6075 27.6399V27.0007M6.3895 27.6399L4.10799 30.9318M6.3895 27.6399V20.6324M6.3895 27.6399H16.2M4.10799 30.9318H29.6283M4.10799 30.9318V33.1807H29.6283V30.9318M22.1319 5.90042L12.1259 9.1063M22.1319 5.90042H7.49766M27.6075 6.9108L14.7985 10.9523M27.6075 6.9108V8.05156M27.6075 9.19231L17.3008 12.6146M27.6075 9.19231V19.6872M27.6075 9.19231V8.05156M7.49766 5.90042L21.1215 15.2313M6.3895 7.856L26.0786 20.747C28.1137 22.0795 29.9152 25.378 27.6075 24.6088V24.6088M6.3895 7.856C5.28134 7.20414 3.97762 8.67082 5.28134 9.7138M6.3895 7.856V7.20414M27.6075 24.6088L5.28134 9.7138M27.6075 24.6088C29.05 25.5704 28.5669 26.8661 27.6075 27.0007M5.28134 9.7138C3.84725 9.19231 2.86946 10.5286 4.10799 11.7346L6.3895 13.2556M6.3895 15.5805L13.1688 20.3125M6.3895 15.5805V18.188M6.3895 15.5805V13.2556M6.3895 18.188L11.1807 21.5827M6.3895 18.188V20.6324M6.3895 20.6324C-0.45499 18.9702 -0.0964675 7.856 6.3895 7.20414M6.3895 20.6324V21.5827L8.93175 23.0196M10.3332 23.8217L0.424988 28.4547L29.1394 10.1086M10.3332 23.8217L16.2 27.6399M10.3332 23.8217L13.0385 22.5567M16.2 27.6399H20.8608M13.0385 22.5567L20.8608 27.6399M13.0385 22.5567L15.3414 21.4799M20.8608 27.6399H25.163M15.3414 21.4799L25.163 27.6399M15.3414 21.4799L24.2286 17.3243M24.2286 17.3243L30.6925 14.3017C32.2415 13.5775 33.8757 12.1266 33.2059 10.5533C33.0011 10.0722 32.6533 9.71986 32.2253 9.49238C31.238 8.96765 30.0816 9.5066 29.1394 10.1086V10.1086M24.2286 17.3243L27.6075 19.6872M27.6075 19.6872V21.748M29.75 11.2623L29.4565 11.409C28.9302 11.6722 28.7447 12.3314 29.0566 12.8304V12.8304C29.3293 13.2666 29.8889 13.4241 30.349 13.194L30.8125 12.9623L31.4978 12.5707C31.9478 12.3135 32.1186 11.7495 31.8868 11.2859V11.2859C31.6455 10.8034 31.0589 10.6079 30.5764 10.8491L29.75 11.2623ZM29.75 11.2623C30.6195 12.0014 31.509 12.5108 32.2715 13.3365C33.7871 14.978 32.8839 17.4829 31.2844 19.0427L30.3096 19.9933C30.0799 20.2173 30.0264 20.5664 30.1785 20.8489V20.8489C30.3866 21.2356 30.8896 21.3471 31.2415 21.0846L32.6372 20.044C32.8957 19.8513 33.2542 19.9274 33.3399 20.2383C33.4788 20.7418 33.5568 21.5588 33.1157 22.5567M6.3895 13.2556L26.6949 26.7925C27.0155 26.982 27.3313 27.0395 27.6075 27.0007M27.6075 8.05156C28.205 8.19524 29.3479 8.80779 29.1394 10.1086" stroke="black" stroke-width="0.5"/>
</svg>
