<svg width="35" height="34" viewBox="0 0 35 34" fill="none" xmlns="http://www.w3.org/2000/svg">
<path d="M3.825 11.9001C3.825 12.4499 3.3793 12.8956 2.82951 12.8956C2.27971 12.8956 1.83401 12.4499 1.83401 11.9001C1.83401 11.3503 2.27971 10.9046 2.82951 10.9046C3.3793 10.9046 3.825 11.3503 3.825 11.9001Z" fill="black"/>
<path d="M32.4455 4.74203C32.4455 5.29183 31.9998 5.73752 31.45 5.73752C30.9002 5.73752 30.4545 5.29183 30.4545 4.74203C30.4545 4.19223 30.9002 3.74653 31.45 3.74653C31.9998 3.74653 32.4455 4.19223 32.4455 4.74203Z" fill="black"/>
<path d="M5.14729 10.6252H31.0823L32.789 11.9973L31.0823 13.637H5.14729M5.14729 10.6252V13.637M5.14729 10.6252C4.71225 9.21967 2.08091 8.88445 1.09807 10.1232C0.318301 11.1061 0.184206 12.3816 0.863823 13.4362C1.8343 14.9421 3.74177 14.8752 5.14729 13.637M10.9367 8.91848V15.1094M10.9367 15.1094L7.82445 18.2216L21.7792 31.8752L30.0114 23.5425L21.7792 15.1094M10.9367 15.1094L27.2674 31.8752L30.0114 28.5622L16.6926 15.1094M21.7792 15.1094L7.82445 29.1311L10.9367 31.8752L27.2674 15.1094M21.7792 15.1094V8.91848M27.2674 15.1094L30.0114 18.2216L16.3244 31.8752L7.82445 23.5425L12.2585 19.326L16.6926 15.1094M27.2674 15.1094V8.91848M16.6926 15.1094V8.91848M3.825 11.9001C3.825 12.4499 3.3793 12.8956 2.82951 12.8956C2.27971 12.8956 1.83401 12.4499 1.83401 11.9001C1.83401 11.3503 2.27971 10.9046 2.82951 10.9046C3.3793 10.9046 3.825 11.3503 3.825 11.9001ZM32.4455 4.74203C32.4455 5.29183 31.9998 5.73752 31.45 5.73752C30.9002 5.73752 30.4545 5.29183 30.4545 4.74203C30.4545 4.19223 30.9002 3.74653 31.45 3.74653C31.9998 3.74653 32.4455 4.19223 32.4455 4.74203Z" stroke="black" stroke-width="0.5"/>
<path d="M13.6 17.8501L10.625 20.8251L13.3875 23.5876L16.3625 20.6126L13.6 17.8501Z" fill="black"/>
<path d="M7.8625 29.1126L10.625 26.3501L13.6 29.1126L10.8375 31.8751L7.8625 29.1126Z" fill="black"/>
<path d="M16.3625 26.3501L19.125 23.3751L21.8875 26.3501L19.125 29.1126L16.3625 26.3501Z" fill="black"/>
<path d="M24.65 17.8501L22.1 20.4001L24.8625 23.3751L27.4125 20.8251L24.65 17.8501Z" fill="black"/>
<path d="M27.625 25.9251L24.65 29.1126L27.2 31.8751L30.175 28.4751L27.625 25.9251Z" fill="black"/>
<path d="M29.0676 3.39519H2.19705L0.428788 4.77046L2.19705 6.41407H29.0676M29.0676 3.39519V6.41407M29.0676 3.39519C29.5184 1.98635 32.2446 1.65034 33.2629 2.89203C34.0708 3.87718 34.2097 5.15571 33.5056 6.21277C32.5001 7.72221 30.5238 7.65512 29.0676 6.41407" stroke="black" stroke-width="0.5"/>
</svg>
