<svg id="Layer_2" enable-background="new 0 0 24 24" viewBox="0 0 24 24" xmlns="http://www.w3.org/2000/svg"><path d="m16.906 13.572v-6.364c0-.276-.224-.5-.5-.5h-2.542v-.145c0-1.907-1.551-3.458-3.458-3.458s-3.458 1.55-3.458 3.458v.145h-2.542c-.276 0-.5.224-.5.5v13.188c0 .276.224.5.5.5h12c2.033 0 3.688-1.654 3.688-3.688 0-1.862-1.393-3.39-3.188-3.636zm-8.958-7.009c0-1.355 1.103-2.458 2.458-2.458s2.458 1.103 2.458 2.458v.145h-4.916zm-3.042 13.333v-12.188h2.042v1.813c0 .276.224.5.5.5s.5-.224.5-.5v-1.813h4.917v1.813c0 .276.224.5.5.5s.5-.224.5-.5v-1.813h2.042v5.864c-1.795.247-3.188 1.775-3.188 3.637 0 1.062.458 2.014 1.18 2.688h-8.993zm11.5 0c-1.482 0-2.688-1.206-2.688-2.688s1.206-2.688 2.688-2.688 2.688 1.206 2.688 2.688-1.206 2.688-2.688 2.688z"/><path d="m17.12 16.144-1.069 1.069-.358-.358c-.195-.195-.512-.195-.707 0s-.195.512 0 .707l.711.711c.098.098.226.146.354.146s.256-.049.354-.146l1.423-1.423c.195-.195.195-.512 0-.707s-.513-.195-.708.001z"/></svg>