<svg id="Icon" viewBox="0 0 64 64" xmlns="http://www.w3.org/2000/svg"><path d="m59 21.97021h-2.23889l.401-1.0791c.81543-2.19287.48145-4.63232-.89453-6.52539-1.37598-1.89258-3.60254-2.96826-5.93066-2.86426l-3.55762.15039-.95215-3.41895c-.62793-2.25635-2.33203-4.03516-4.55957-4.75879-2.22559-.72217-4.65137-.28662-6.48535 1.16992l-2.78223 2.20898-2.78223-2.20898c-1.83398-1.45654-4.26172-1.89209-6.48535-1.16992-2.22754.72363-3.93164 2.50293-4.55957 4.75879l-.95117 3.41895-3.55859-.15088c-2.33594-.10254-4.55566.97168-5.93164 2.86475-1.375 1.89307-1.70898 4.33203-.89355 6.5249l.40143 1.07959h-2.23932c-1.6543 0-3 1.3457-3 3v14.05957c0 1.6543 1.3457 3 3 3h2.23895l-.40106 1.0791c-.81543 2.19287-.48145 4.63232.89453 6.5249 1.375 1.89307 3.59668 2.9624 5.93066 2.86523l3.55762-.15088.95215 3.41895c.62793 2.25635 2.33203 4.03516 4.55957 4.75879 2.22656.72266 4.65137.28613 6.48535-1.16992l2.78223-2.20898 2.78223 2.20898c1.25098.99316 2.77734 1.5127 4.32715 1.5127.72266 0 1.45117-.11279 2.1582-.34277 2.22754-.72363 3.93164-2.50293 4.55957-4.75879l.95117-3.41895 3.55859.15088c2.31934.10352 4.55469-.97217 5.93164-2.86475 1.375-1.89307 1.70898-4.33203.89355-6.52441l-.40137-1.08008h2.23926c1.6543 0 3-1.3457 3-3v-14.05957c0-1.6543-1.3457-3-3-3zm-50.28711-1.77686c-.59082-1.58691-.3584-3.28223.63672-4.65137.99609-1.37012 2.53418-2.1084 4.22949-2.04297l5.14453.21826 1.37695-4.94824c.4541-1.63232 1.63867-2.86914 3.25-3.39258 1.61035-.52393 3.2959-.21973 4.62305.83398l4.02637 3.19629 4.02637-3.19629c1.3252-1.05322 3.00977-1.35938 4.62305-.83398 1.61133.52344 2.79688 1.76025 3.25098 3.39258l1.37695 4.94824 5.14355-.21777c1.66699-.06885 3.23242.67139 4.22949 2.04248.99512 1.36914 1.22754 3.06494.63672 4.65234l-.65973 1.77588h-7.7099c-3.36102-4.9975-8.8916-7.97021-14.91748-7.97021s-11.55646 2.97272-14.91748 7.97021h-7.70898l-.66064-1.77686zm35.72913 1.77686h-24.88404c3.02478-3.76691 7.55103-5.97021 12.44202-5.97021s9.41724 2.20331 12.44202 5.97021zm10.84509 21.83643c.59082 1.58691.3584 3.28223-.63672 4.65137-.99609 1.37012-2.52246 2.10645-4.22949 2.04297l-5.14453-.21826-1.37695 4.94824c-.4541 1.63232-1.63867 2.86914-3.25 3.39258-1.61133.52441-3.29688.21973-4.62305-.83398l-4.02637-3.19629-4.02637 3.19629c-1.3252 1.05322-3.00977 1.35938-4.62305.83398-1.61133-.52344-2.79688-1.76025-3.25098-3.39258l-1.37695-4.94824-5.14355.21826c-1.69336.06543-3.2334-.67285-4.22949-2.04297-.99512-1.36963-1.22754-3.06494-.63672-4.65186l.66022-1.77637h7.70941c3.36102 4.9975 8.8916 7.97021 14.91748 7.97021s11.55646-2.97272 14.91748-7.97021h7.70947zm-35.72913-1.77686h24.88403c-3.02478 3.76691-7.55103 5.97021-12.44202 5.97021s-9.41724-2.20331-12.44202-5.97021zm40.44202-3c0 .55127-.44824 1-1 1h-54c-.55176 0-1-.44873-1-1v-14.05957c0-.55127.44824-1 1-1h54c.55176 0 1 .44873 1 1z"/><path d="m5.67773 37.23584h6.85938v-10.47168h-6.85938zm2-8.47168h2.85938v6.47168h-2.85938z"/><path d="m28.95703 33h1.56934v2.23584h-3.13867v-6.47168h4.13867v-2h-6.13867v10.47168h7.13867v-6.23584h-3.56934z"/><path d="m20.83789 29.88232c0-1.71924-1.39844-3.11816-3.11719-3.11816h-3.93164v10.47168h2v-2.83777l3.34473 3.31238 1.4082-1.4209-3.32166-3.28955h.50037c1.71875 0 3.11719-1.39844 3.11719-3.11768zm-2 0c0 .61621-.50098 1.11768-1.11719 1.11768h-1.93164v-2.23584h1.93164c.61621 0 1.11719.50146 1.11719 1.11816z"/><path d="m21.98 26.764h2v10.472h-2z"/><path d="m33.742 26.764h2v10.472h-2z"/><path d="m42.10938 32.5423-3.04981-4.83155v-.94659h-2v10.47168h2v-5.77814l3.04981 4.83155v.94659h2v-10.47168h-2z"/><path d="m46.49609 26.76416-1.61914 10.07715 1.97461.31738.60712-3.77637h2.15686l.60712 3.77637 1.97461-.31738-1.61914-10.07715h-4.08203zm1.28418 4.61816.4209-2.61816h.67188l.4209 2.61816h-1.51367z"/><path d="m54.96582 26.76416h-2v10.23584h5.69238v-2h-3.69238z"/></svg>