<svg id="a" height="512" viewBox="0 0 60 60" width="512" xmlns="http://www.w3.org/2000/svg"><path d="m41.343 39.013c-1.069-.093-2.11.231-2.921.909l-1.422 1.147v-8.069c0-1.654-1.346-3-3-3h-16c-1.654 0-3 1.346-3 3v11.07c-1.204-.701-2.565-1.07-4-1.07-.739 0-1.428.035-2.093.104-2.793.261-5.259 1.129-7.538 2.651-.857.571-1.369 1.514-1.369 2.521v8.723c0 1.654 1.346 3 3 3h25.03c1.266-.04 2.453-.557 3.344-1.459l12.479-12.71c1.451-1.479 1.544-3.796.214-5.392-.688-.824-1.656-1.331-2.725-1.426zm-14.343-7.013h4v3c0 .551-.448 1-1 1h-2c-.552 0-1-.449-1-1zm-9 0h7v3c0 1.654 1.346 3 3 3h2c1.654 0 3-1.346 3-3v-3h1c.552 0 1 .449 1 1v9.682l-4.84 3.904c-.778-.978-2-1.586-3.32-1.586h-9.84v-12c0-.551.448-1 1-1zm24.426 12.429-12.478 12.708c-.526.533-1.229.84-1.948.862h-25c-.552 0-1-.449-1-1v-8.723c0-.337.179-.658.479-.858 1.996-1.334 4.16-2.094 6.625-2.325.606-.064 1.227-.095 1.896-.095 1.411 0 2.727.471 3.779 1.34.241.212.541.381.903.508.301.101.626.152.968.152h10.189c.908 0 1.753.557 2.062 1.372.022.054.036.12.055.188.026.112.039.225.045.326.026.564-.171 1.096-.554 1.497-.38.398-.895.617-1.447.617h-11c-.553 0-1 .448-1 1s.447 1 1 1h11c1.104 0 2.133-.439 2.894-1.236.764-.8 1.156-1.855 1.104-2.982-.005-.091-.016-.185-.027-.28l8.721-7.035c.414-.346.936-.515 1.474-.462.536.048 1.021.302 1.366.715.658.789.611 1.979-.105 2.709z"/><path d="m57 0h-18.03c-1.266.04-2.453.557-3.308 1.425l-4.963 4.575h-12.699c-1.654 0-3 1.346-3 3v16c0 1.654 1.346 3 3 3h30c1.654 0 3-1.346 3-3v-7.127c1.683-.587 3.399-.914 4.81-.873h.19c.397 0 .795-.01 1.188-.031 1.577-.076 2.812-1.393 2.812-2.999v-10.97c0-1.654-1.346-3-3-3zm-19.034 17.534c-.468.63-.73 1.371-.771 2.161-.917 1.423-2.501 2.305-4.195 2.305-2.757 0-5-2.243-5-5s2.243-5 5-5 5 2.243 5 5c0 .204-.014.375-.034.534zm1.86-2.068c-.702-3.124-3.493-5.466-6.825-5.466-3.859 0-7 3.14-7 7s3.141 7 7 7c1.811 0 3.533-.719 4.819-1.942.19.293.404.573.672.815.74.667 1.676.997 2.622.997 1.076 0 2.166-.424 3.002-1.26l1.835-1.825c.756-.762 1.812-1.483 3.05-2.093v2.397c-1.221.204-2.348.775-3.242 1.669-.894.893-1.465 2.021-1.669 3.242h-22.18c-.423-2.507-2.403-4.486-4.91-4.91v-8.18c2.507-.423 4.486-2.403 4.91-4.91h24.807zm-21.825-7.466h1.858c-.364 1.399-1.459 2.494-2.858 2.858v-1.858c0-.551.448-1 1-1zm-1 17v-1.858c1.399.364 2.494 1.459 2.858 2.858h-1.858c-.552 0-1-.449-1-1zm31 1h-1.858c.176-.684.518-1.315 1.03-1.828.513-.513 1.145-.854 1.828-1.031v1.858c0 .551-.448 1-1 1zm10-12.03c0 .528-.407.977-.913 1.001-.362.019-.725.028-1.087.028h-.162c-1.857-.061-4.053.384-6.198 1.228-2.08.805-3.895 1.923-5.104 3.144l-1.832 1.822c-.806.806-2.095.896-2.872.196-.412-.374-.646-.883-.66-1.437s.194-1.074.613-1.494l9.95-10.78c.375-.406.35-1.039-.056-1.413-.192-.177-.436-.258-.679-.258v-.007h-15.35l3.402-3.137c.526-.534 1.229-.84 1.948-.863h18c.552 0 1 .449 1 1z"/></svg>