<svg id="svg1" height="100" viewBox="0 0 26.458329 26.458333" width="100" xmlns="http://www.w3.org/2000/svg" xmlns:inkscape="http://www.inkscape.org/namespaces/inkscape" xmlns:sodipodi="http://sodipodi.sourceforge.net/DTD/sodipodi-0.dtd" xmlns:svg="http://www.w3.org/2000/svg" inkscape:version="1.3.1 (91b66b0783, 2023-11-16)" sodipodi:docname="Shopping Outline.svg"><g id="layer32" transform="translate(-36.458 -111.608)" inkscape:groupmode="layer" inkscape:label="Icon 32"><path id="path401" d="m316.4258 157.26229c-1.59991-.00001-2.94703 1.10401-3.32176 2.59002h-.1726c-.6075-.00003-1.10742.49991-1.10742 1.10742v6.60529c0 .6075.49994 1.10742 1.10742 1.10742h1.00356c-.0112.0786-.0171.15876-.0171.2403 0 .94001.76915 1.70894 1.70894 1.70894.93982.00001 1.70894-.76893 1.70894-1.70894 0-.0817-.008-.16156-.0191-.2403h4.36304.57671 1.18855c-.0112.0786-.0176.15876-.0176.2403 0 .88126.67643 1.61223 1.53531 1.70015.0578.006.11644.009.1757.009.058-.00007.11552-.003.17208-.009.0575-.006.11383-.0144.1695-.0258.77765-.15945 1.36787-.85128 1.36788-1.67431 0-.038-.003-.0753-.006-.11266h.15141c.18694 0 .4-.01.59945-.13281.10115-.0623.19687-.14008.2837-.23099.21469-.18222.35196-.45617.35192-.75809v-.64131c.00059-.22654.001-.44445.001-.70538 0-.004-.0009-.007-.001-.0109v-1.4981c-.00005-.0545-.0136-.10808-.0393-.15607l-1.51567-2.80654c-.17405-.32248-.49132-.53874-.84853-.58705-.00052-.00007-.001-.00044-.002-.00051-.0187-.003-.0379-.002-.0568-.004-.031-.003-.0616-.007-.093-.007h-.005-2.88406v-.30231c0-.60751-.49787-1.10745-1.10536-1.10742h-1.93012c-.37516-1.486-1.72391-2.59002-3.32383-2.59002zm0 .66197c1.5311 0 2.76573 1.23358 2.76573 2.76572s-1.23463 2.76778-2.76573 2.76779-2.76573-1.23564-2.76572-2.76779c0-.17302.0169-.34185.047-.50591v-.00052c.23693-1.28844 1.36068-2.2593 2.71869-2.25929zm1.34152 1.54099c-.0879.00016-.17215.0353-.23409.0977l-1.52135 1.55081-.6935-.70487c-.12816-.13093-.33833-.13285-.46871-.004-.12955.12793-.13147.33651-.004.46664l.92966.94568c.12973.13259.34311.13259.47284 0l1.75751-1.78904c.12872-.13038.12731-.34055-.004-.46871-.0625-.0611-.1467-.0949-.2341-.0941zm-4.83588 1.04903h.0729c-.003.0582-.004.11683-.004.1757 0 1.88945 1.53687 3.42978 3.42563 3.42977s3.4277-1.54033 3.4277-3.42977c0-.0589-.002-.11754-.005-.1757h1.8309c.2498-.00001.44545.19524.44545.44545v6.60529c0 .25024-.19563.44545-.44545.44545h-4.60541c-.3028-.4838-.83837-.80875-1.44745-.80874-.60952 0-1.14684.32435-1.44953.80874h-1.24592c-.24984 0-.44493-.19522-.44493-.44545v-6.60529c0-.2502.19511-.44546.44493-.44545zm9.85367 1.41025h1.54874v1.82005c0 .72717.55947 1.33132 1.26865 1.40301.0466.005.0939.007.1416.007h.002 1.81849v2.35903c-.003.16699-.0118.23719-.0491.30747-.0459.0865-.19855.23965-.26924.28319-.0707.0435-.0652.0336-.25218.0336h-.33486c-.14239-.27774-.35816-.51118-.62167-.67593-.0646-.0404-.13164-.0769-.20154-.10852-.001-.00048-.002-.001-.003-.002-.00014-.00007-.00037.00006-.00052 0-.0247-.0111-.0496-.0216-.0749-.0315-.0246-.01-.0493-.0188-.0744-.0274-.0187-.006-.0373-.0129-.0563-.0186-.0449-.0136-.0906-.0258-.13694-.0357-.0116-.002-.0235-.004-.0351-.006-.0365-.007-.0733-.0125-.11059-.0171-.0196-.002-.0391-.005-.0589-.007-.047-.004-.0941-.007-.14211-.007-.002-.00001-.004 0-.006 0-.0755 0-.15026.005-.22324.015-.5163.0682-.96161.36932-1.2268.79375h-.99684c.0607-.13667.0951-.28727.0951-.44545zm2.21278 0h.67283.003c.001.00001.002.00051.003.00052.0398.00026.0784.006.11575.0155.008.002.0155.005.0233.007.0294.009.0574.0215.0842.0362.0119.007.0233.0137.0346.0212.0226.015.0438.0319.0636.0506.0107.0102.0207.0208.0305.032.0186.0213.0358.0444.0506.0693.003.006.008.0111.0109.017l1.2516 2.31872h-1.59576c-.00053 0-.001 0-.002 0-.41637-.00083-.74672-.33119-.74672-.74827zm-.93483 3.71864c-.18226.00028-.32992.14795-.33021.33021.00057.18206.14815.32942.33021.3297h.004.49041.004c.18185-.00057.32913-.14785.32969-.3297-.00028-.18205-.14764-.32964-.32969-.33021h-.004-.49041zm-8.43617 2.22002v.00052c.58216 0 1.04696.46631 1.04696 1.04903 0 .58271-.4648 1.04697-1.04696 1.04696-.58213 0-1.04697-.46425-1.04697-1.04696 0-.1578.0343-.30705.0956-.4408.001-.002.002-.005.003-.007.16636-.35656.5264-.60151.94827-.60151zm9.51001.00052h.00052c.0364 0 .0721.002.10748.005.00034.00004.0007-.00003.001 0 .0372.004.0737.0101.10955.0176.0631.0132.12417.0325.18242.0563.007.003.0145.006.0217.009.0548.0239.10678.0523.15607.0848.007.004.0131.009.0196.0134.0476.033.092.0698.13333.11007.007.007.0149.0147.0222.0222.0384.0398.0737.0826.10542.12816.007.01.0136.0203.0202.0305.0283.0437.0528.09.0744.13797.007.0167.0145.0335.0212.0506.0188.0484.0344.0982.046.14987.0167.075.0263.15276.0263.23306 0 .0801-.01.1578-.0263.23254-.0116.0519-.0271.10183-.046.15038-.007.0168-.0133.0333-.0207.0496-.0218.0485-.0468.0954-.0754.13952-.007.0101-.0133.0201-.0202.03-.0315.045-.0664.0873-.10438.1266-.008.008-.0154.0156-.0233.0233-.041.0398-.0851.0759-.13229.10852-.007.005-.0133.009-.0202.0139-.0493.0324-.10132.0609-.15607.0847-.007.003-.014.006-.0212.009-.0585.0239-.12002.0427-.18346.0558-.0699.0145-.14206.0227-.21652.0227-.0369 0-.0732-.002-.10904-.005-.0349-.003-.0691-.009-.10283-.016-.47887-.0968-.83458-.5159-.83458-1.02577 0-.28922.11488-.54937.30128-.73846l.007-.007c.0938-.0933.20466-.16894.32866-.22118.0624-.0263.12837-.0466.19637-.0605.002-.00035.003-.00069.005-.001.0265-.005.0534-.009.0806-.0124.0108-.001.0216-.003.0326-.004.0307-.003.0615-.005.093-.005z" stroke-linecap="round" stroke-linejoin="round" transform="translate(-270.339 -39.104)"/></g></svg>