<svg width="35" height="34" viewBox="0 0 35 34" fill="none" xmlns="http://www.w3.org/2000/svg">
<path d="M3.40094 16.1833V32.3002H31.0539V16.1833M3.40094 16.1833L0.424988 23.9074M3.40094 16.1833H7.78127M31.0539 16.1833L33.9295 23.9074M31.0539 16.1833H26.3057M7.78127 16.1833V12.1708L5.57438 14.177L0.424988 10.5323L4.86162 5.50882C6.07965 4.12967 7.73586 3.21256 9.55115 2.91201L11.7938 2.54072M7.78127 16.1833H26.3057M11.7938 2.54072C13.0978 5.41638 18.4813 8.69326 22.2932 2.54072M11.7938 2.54072C11.6266 1.47074 13.2227 1.37042 14.3016 2.54072C16.2744 4.68073 18.4813 4.07885 20.3204 2.54072C21.7916 1.31021 22.2486 2.02801 22.2932 2.54072M22.2932 2.54072L24.6271 2.92713C26.3866 3.21844 27.9983 4.08932 29.2062 5.40145L33.9295 10.5323L29.3485 14.177L26.3057 12.1708V16.1833M18.4813 10.315V10.315C18.4813 9.65938 19.0128 9.12793 19.6683 9.12793H23.0121C23.6677 9.12793 24.1991 9.65938 24.1991 10.315V10.315C24.1991 10.9705 23.6677 11.502 23.0121 11.502H19.6683C19.0128 11.502 18.4813 10.9705 18.4813 10.315Z" stroke="black" stroke-width="0.5"/>
<path d="M16.8288 21.0269V22.0992C16.8288 23.2038 15.9333 24.0992 14.8288 24.0992H13.8669M13.8669 24.7915H14.8288C15.9333 24.7915 16.8288 25.687 16.8288 26.7915V27.6475M17.5257 27.6475V26.7915C17.5257 25.687 18.4211 24.7915 19.5257 24.7915H20.4875M20.4875 24.0992H19.5257C18.4211 24.0992 17.5257 23.2038 17.5257 22.0992V21.0269" stroke="black" stroke-width="0.5"/>
<path d="M22.3053 2.54072C18.4934 8.69326 13.1099 5.41638 11.8058 2.54072C11.6387 1.47074 13.2348 1.37043 14.3137 2.54072C16.2865 4.68073 18.4934 4.07885 20.3324 2.54072C21.8037 1.31021 22.2607 2.02801 22.3053 2.54072Z" fill="black" stroke="black" stroke-width="0.5"/>
</svg>
