<svg width="24" height="24" viewBox="0 0 24 24" fill="none" xmlns="http://www.w3.org/2000/svg">
<rect width="24" height="24" rx="3" fill=""/>
<path d="M10.8882 20C10.8085 19.9999 10.7295 19.9861 10.6545 19.9591C10.51 19.9066 10.3874 19.8075 10.3064 19.6777C10.2254 19.5479 10.1907 19.3949 10.2077 19.2432L10.737 14.4091H6.68841C6.56353 14.4093 6.44097 14.3757 6.33387 14.312C6.22678 14.2483 6.1392 14.1569 6.08054 14.0476C6.02189 13.9382 5.99438 13.8151 6.00095 13.6914C6.00753 13.5677 6.04796 13.4481 6.11789 13.3455L11.5412 5.30006C11.627 5.17416 11.7527 5.08028 11.8984 5.03335C12.0441 4.98641 12.2015 4.98909 12.3455 5.04098C12.4839 5.09195 12.6021 5.18578 12.6826 5.30858C12.763 5.43138 12.8015 5.57662 12.7923 5.72279L12.263 10.5909H16.3116C16.4365 10.5908 16.559 10.6243 16.6661 10.688C16.7732 10.7517 16.8608 10.8432 16.9195 10.9525C16.9781 11.0619 17.0056 11.185 16.999 11.3087C16.9925 11.4324 16.952 11.552 16.8821 11.6546L11.4588 19.7C11.3957 19.7925 11.3107 19.8683 11.2112 19.9206C11.1117 19.9729 11.0008 20.0002 10.8882 20Z" fill="#36424E"/>
</svg>
