<svg width="24" height="24" viewBox="0 0 24 24" fill="none" xmlns="http://www.w3.org/2000/svg">
<path d="M18.3125 16.8125C18.3125 17.3927 18.082 17.9491 17.6718 18.3593C17.2616 18.7695 16.7052 19 16.125 19C15.5448 19 14.9884 18.7695 14.5782 18.3593C14.168 17.9491 13.9375 17.3927 13.9375 16.8125C13.9375 16.2323 14.168 15.6759 14.5782 15.2657C14.9884 14.8555 15.5448 14.625 16.125 14.625C16.7052 14.625 17.2616 14.8555 17.6718 15.2657C18.082 15.6759 18.3125 16.2323 18.3125 16.8125ZM9.5625 16.8125C9.5625 17.3927 9.33203 17.9491 8.9218 18.3593C8.51156 18.7695 7.95516 19 7.375 19C6.79484 19 6.23844 18.7695 5.8282 18.3593C5.41797 17.9491 5.1875 17.3927 5.1875 16.8125C5.1875 16.2323 5.41797 15.6759 5.8282 15.2657C6.23844 14.8555 6.79484 14.625 7.375 14.625C7.95516 14.625 8.51156 14.8555 8.9218 15.2657C9.33203 15.6759 9.5625 16.2323 9.5625 16.8125Z" stroke="#1A1A1A" stroke-width="1.2"/>
<path d="M13.9375 16.8125H9.5625M3 5H11.75C12.9873 5 13.6059 5 13.99 5.385C14.375 5.76825 14.375 6.38688 14.375 7.625V15.0625M14.8125 7.1875H16.3884C17.1146 7.1875 17.4777 7.1875 17.7787 7.35813C18.0797 7.52788 18.2661 7.83937 18.6398 8.46237L20.1264 10.9386C20.3119 11.2484 20.4046 11.4041 20.4527 11.5756C20.5 11.748 20.5 11.9283 20.5 12.2896V14.625C20.5 15.4431 20.5 15.8518 20.3241 16.1562C20.2089 16.3558 20.0433 16.5214 19.8438 16.6366C19.5393 16.8125 19.1306 16.8125 18.3125 16.8125M3 12.875V14.625C3 15.4431 3 15.8518 3.17587 16.1562C3.29107 16.3558 3.45674 16.5214 3.65625 16.6366C3.96075 16.8125 4.36937 16.8125 5.1875 16.8125M3 7.625H8.25M3 10.25H6.5" stroke="#1A1A1A" stroke-width="1.2" stroke-linecap="round" stroke-linejoin="round"/>
</svg>
