<svg id="Layer_1" enable-background="new 0 0 100 100" height="512" viewBox="0 0 100 100" width="512" xmlns="http://www.w3.org/2000/svg"><g><path d="m21 27h6.39l6.16 28.15c-3.17.67-5.55 3.49-5.55 6.85 0 3.86 3.14 7 7 7h28.5c1.1 0 2-.9 2-2s-.9-2-2-2h-28.5c-1.65 0-3-1.35-3-3s1.35-3 3-3h1 27.5.5c.84 0 1.59-.53 1.88-1.32l8-22c.38-1.04-.16-2.19-1.2-2.56-1.04-.38-2.18.16-2.56 1.2l-7.52 20.68h-24.99l-6.66-30.43c-.2-.92-1.01-1.57-1.95-1.57h-8c-1.1 0-2 .9-2 2s.9 2 2 2z"/><circle cx="36" cy="76" r="3"/><circle cx="58" cy="76" r="3"/><path d="m51 45c1.1 0 2-.9 2-2v-5h6c1.1 0 2-.9 2-2s-.9-2-2-2h-6v-6c0-1.1-.9-2-2-2s-2 .9-2 2v6h-5c-1.1 0-2 .9-2 2s.9 2 2 2h5v5c0 1.1.9 2 2 2z"/></g></svg>