<?xml version="1.0" encoding="UTF-8"?><svg id="Layer_1" xmlns="http://www.w3.org/2000/svg" viewBox="0 0 492 266.31"><defs><style>.cls-1{fill:#36424e;}</style></defs><path class="cls-1" d="M363.21,7.88c.72-4.01-2.36-7.7-6.43-7.7-37.59-.04-72.96-.31-108.31,.44-5.03,.11-13.2,5.27-14.4,9.61-22.78,82.72-44.75,165.67-66.8,248.6-.05,.19-.09,.39-.11,.6-.42,3.71,2.77,6.87,6.51,6.87,26.95,0,53.88,0,80.82,0q40.24,0,50.68-39.42c18.59-69.61,37.32-139.19,55.89-208.81,.88-3.3,1.52-6.66,2.15-10.18Z"/><path class="cls-1" d="M316.84,257.26c-1.2,4.55,2.35,8.98,7.05,8.98,37.89,.04,74.03,.27,110.14-.49,4.21-.09,10.79-6.13,12.04-10.59,15.56-55.73,30.46-111.66,45.17-167.62,3.34-12.71-5.07-25.48-10.43-36.36C470.62,30.46,461.33,2.05,434.76,.15c-6.64-.48-13.26,.29-19.86,.41-6.32,.11-12.73,.13-18.83,2.02-11.82,3.66-15.21,15.79-18.31,26.52-1.37,4.75-2.62,9.53-3.9,14.31-18.96,71.27-38.02,142.52-57,213.78l-.02,.06Z"/><path class="cls-1" d="M200.4,1.33H99.05c-5.55,0-10.42,3.73-11.86,9.1-6.56,24.21-13.11,48.33-20.13,74.21-2.57,9.53-14.76,12.29-21.21,4.82-.2-.23-.4-.48-.61-.71C26.25,70.77,19.68,65.3,0,39.07c.83,3.33,18.92,70.82,19.77,74.15,5.32,21.06,11.52,41.92,16.07,63.15,2.14,10.04,6.84,12.81,16.39,12.71,34.36-.38,68.75,.2,103.09-.53,4.64-.1,12.18-4.84,13.29-8.83,14.91-53.82,29.11-107.82,43.69-162.89,2.05-7.82-3.81-15.49-11.9-15.49ZM97.39,141.09c-.61,2.42-2.6,4.57-7.09,6.73-4.51,2.15-8.14,3.31-9.21,1.06s7.61-15.72,12.61-15.69c3.86,.03,4.31,5.52,3.69,7.9Z"/></svg>