<?xml version="1.0" encoding="UTF-8"?><svg id="Layer_1" xmlns="http://www.w3.org/2000/svg" viewBox="0 0 1066 146.81"><defs><style>.cls-1{fill:#fff;}</style></defs><g><path class="cls-1" d="M158.34,7.28c.31-1.75-1.03-3.36-2.8-3.36-16.39-.02-31.81-.14-47.22,.19-2.19,.05-5.76,2.3-6.28,4.19-9.93,36.06-19.51,72.22-29.12,108.37-.02,.08-.04,.17-.05,.26-.18,1.62,1.21,2.99,2.84,2.99,11.75,0,23.49,0,35.23,0q17.54,0,22.09-17.19c8.1-30.35,16.27-60.68,24.37-91.03,.38-1.44,.66-2.9,.94-4.44Z"/><path class="cls-1" d="M138.12,115.99c-.52,1.98,1.02,3.91,3.07,3.92,16.52,.02,32.27,.12,48.01-.21,1.84-.04,4.71-2.67,5.25-4.62,6.78-24.3,13.28-48.68,19.69-73.07,1.46-5.54-2.21-11.11-4.55-15.85-4.44-9.03-8.49-21.42-20.08-22.24-2.89-.21-5.78,.13-8.66,.18s-5.55,.06-8.21,.88c-5.15,1.59-6.63,6.88-7.98,11.56-.6,2.07-1.14,4.16-1.7,6.24-8.27,31.07-16.57,62.13-24.85,93.2v.03Z"/><path class="cls-1" d="M87.36,4.42H43.18c-2.42,0-4.54,1.63-5.17,3.97-2.86,10.55-5.71,21.07-8.78,32.35-1.12,4.15-6.44,5.36-9.25,2.1-.09-.1-.17-.21-.27-.31C11.44,34.69,8.58,32.31,0,20.88c.36,1.45,8.25,30.87,8.62,32.32,2.32,9.18,5.02,18.27,7.01,27.53,.93,4.38,2.98,5.58,7.14,5.54,14.98-.17,29.97,.09,44.94-.23,2.02-.04,5.31-2.11,5.79-3.85,6.5-23.46,12.69-47,19.05-71.01,.9-3.41-1.66-6.75-5.19-6.75Zm-44.91,60.93c-.27,1.05-1.13,1.99-3.09,2.93-1.96,.94-3.55,1.44-4.02,.46s3.32-6.85,5.5-6.84c1.68,.01,1.88,2.41,1.61,3.45Z"/></g><g><polygon class="cls-1" points="384.64 104.61 309.97 0 297.46 0 297.46 123.78 309.51 123.78 309.51 21.76 382.34 123.78 396.69 123.78 396.69 0 384.64 0 384.64 104.61"/><path class="cls-1" d="M468.66,0l-45.43,123.78h12.82l19.26-52.09h37.21l18.93,52.09h12.73L479.28,0h-10.62Zm-8.95,59.71l14.26-39.14,14.19,39.14h-28.44Z"/><polygon class="cls-1" points="605.09 54.37 563.54 0 549.82 0 549.82 123.78 561.88 123.78 561.88 17.8 605.1 74.34 648.22 17.81 648.22 123.78 660.28 123.78 660.28 0 646.56 0 605.09 54.37"/><path class="cls-1" d="M766.7,83.49c0,8.1-2.8,14.85-8.56,20.64-5.76,5.78-12.52,8.59-20.67,8.59s-14.93-2.81-20.72-8.6c-5.78-5.78-8.6-12.53-8.6-20.63V0h-12.06V83.49c0,11.35,4.07,21.17,12.09,29.2,8.03,8.02,17.88,12.09,29.28,12.09s21.17-4.07,29.2-12.09c6.7-6.71,10.76-14.97,12.07-24.56l.02-88.13h-12.06V83.49Z"/><polygon class="cls-1" points="903.1 104.61 828.44 0 815.92 0 815.92 123.78 827.98 123.78 827.98 21.76 900.8 123.78 915.16 123.78 915.16 0 903.1 0 903.1 104.61"/><path class="cls-1" d="M952.32,122.52c0,4.1-1.09,7.18-3.3,9.39-2.35,2.3-5.13,3.42-8.51,3.42h-2.68v11.47h2.68c6.66,0,12.35-2.22,16.93-6.61,4.6-4.42,6.94-10.08,6.94-16.84V0h-12.06V122.52Z"/><rect class="cls-1" x="1002.8" width="12.06" height="123.78"/><rect class="cls-1" x="1053.94" width="12.06" height="123.78"/></g></svg>